<?xml version="1.0" encoding="utf-8"?>
<!-- Generator: Adobe Illustrator 24.0.3, SVG Export Plug-In . SVG Version: 6.00 Build 0)  -->
<svg version="1.1" id="Layer_1" xmlns="http://www.w3.org/2000/svg" xmlns:xlink="http://www.w3.org/1999/xlink" x="0px" y="0px"
	 viewBox="0 0 1224 1120.7" style="enable-background:new 0 0 1224 1120.7;" xml:space="preserve">
<style type="text/css">
	.st0{fill:#303030;}
	.st1{fill:#E9E9E9;}
	.st2{fill:#F7F7F7;}
	.st3{fill:#F5BC18;}
	.st4{fill:#40C1EF;}
	.st5{fill:#8FC640;}
	.st6{fill:#F15A52;}
	.st7{fill:#FFFFFF;}
	.st8{fill-opacity:0.3;}
	.st9{fill:#B3B3B3;}
</style>
<g>
	<path class="st0" d="M374.8,335.3H35.2v218.6h339.7V335.3z"/>
	<path class="st0" d="M717.4,335.3H377.7v218.6h339.7V335.3z"/>
	<path class="st1" d="M374.8,556.7H35.2V775h339.7V556.7z"/>
	<path class="st2" d="M717.4,556.7H377.7v218.6h339.7V556.7z"/>
</g>
<g>
	<g>
		<path class="st0" d="M240.6,142.7c5.9,5.8,9,14.3,9,25.5v43.1c0,0.9-0.8,1.6-1.6,1.6H233c-0.9,0-1.6-0.8-1.6-1.6v-40.7
			c0-6.8-1.6-12-4.8-15.4c-3.2-3.4-7.8-5.2-13.8-5.2c-6.7,0-12,2-15.9,6.1c-3.9,4-5.8,9.9-5.8,17.4v37.8c0,0.9-0.8,1.6-1.6,1.6h-15
			c-0.9,0-1.6-0.8-1.6-1.6v-71.1c0-4.3,5.2-6.6,8.3-3.7l9.1,8.5c3-3.7,6.8-6.3,11.4-8.2c4.5-1.9,9.7-2.8,15.5-2.8
			C226.8,134.1,234.7,137.1,240.6,142.7z"/>
		<path class="st0" d="M284.7,209.1c-6.4-3.4-11.5-8.2-15-14.3c-3.7-6.1-5.4-13-5.4-20.7c0-7.7,1.8-14.5,5.4-20.6
			c3.7-6.1,8.6-10.7,15-14.2c6.4-3.4,13.6-5.2,21.9-5.2c7.7,0,14.4,1.5,20.2,4.7c5.3,2.9,9.5,6.8,12.4,12c0.4,0.8,0.1,1.8-0.6,2.1
			l-11.4,6.6c-0.8,0.4-1.6,0.3-2.1-0.5c-2.1-3-4.7-5.3-7.6-6.8c-3.4-1.8-7.1-2.7-11-2.7c-6.8,0-12.5,2.3-16.9,6.7
			c-4.4,4.4-6.7,10.4-6.7,17.8c0,7.5,2.3,13.4,6.7,17.8c4.4,4.4,10.1,6.7,17.1,6.7c4,0,7.7-0.9,11-2.7c2.9-1.6,5.6-3.9,7.6-6.8
			c0.5-0.6,1.4-0.9,2.1-0.5l11.2,6.6c0.8,0.5,1,1.4,0.6,2.3c-3,5.2-7.2,9.2-12.5,12.1c-5.8,3.2-12.5,4.8-20.1,4.8
			C298.3,214.1,291.1,212.5,284.7,209.1z"/>
		<path class="st0" d="M368.5,209.1c-6.3-3.4-11.2-8.2-14.8-14.3c-3.5-6.1-5.3-13-5.3-20.7c0-7.7,1.8-14.5,5.3-20.6
			c3.5-6.1,8.5-10.7,14.8-14.2c6.3-3.4,13.4-5.2,21.3-5.2c8,0,15.2,1.8,21.5,5.2c6.3,3.4,11.2,8.1,14.8,14.2
			c3.5,6.1,5.3,12.9,5.3,20.6c0,7.7-1.8,14.7-5.3,20.7c-3.5,6.1-8.5,10.9-14.8,14.3c-6.3,3.4-13.5,5.1-21.5,5.1
			C381.9,214.1,374.9,212.5,368.5,209.1z M406.4,191.8c4.4-4.4,6.6-10.4,6.6-17.7c0-7.3-2.1-13.1-6.6-17.7c-4.4-4.4-10-6.7-16.7-6.7
			c-6.7,0-12.3,2.3-16.5,6.7c-4.3,4.4-6.4,10.4-6.4,17.7c0,7.3,2.1,13.3,6.4,17.7c4.3,4.4,9.9,6.7,16.5,6.7
			C396.6,198.5,402.1,196.3,406.4,191.8z"/>
		<path class="st0" d="M462.8,213.1c0.9,0,1.6-0.8,1.6-1.6v-44v-1.1c0-5.4,1.6-9.2,4.9-12.1c3.3-2.9,7.3-4.4,13.8-4.4
			c0,0,3,0,6.3,0.4c1,0.1,1.9-0.6,1.9-1.6v-11.8c0-0.8-0.6-1.5-1.4-1.6c-3-0.5-6.7-0.9-10-0.9c-11.1,0-18.6,2.8-24.8,8.2
			c-6.1,5.6-9.1,13.8-9.1,24.9v44.1c0,0.9,0.8,1.6,1.6,1.6H462.8z"/>
		<path class="st0" d="M153.1,153.4c-3.4-6.1-8.1-10.9-14-14.2c-5.9-3.4-12.8-5.1-20.3-5.1c-7.7,0-14.7,1.8-20.7,5.2
			c-6.2,3.4-11,8.2-14.4,14.3c-3.4,6.1-5.2,12.9-5.2,20.6c0,7.7,1.8,14.7,5.3,20.7c3.5,6.1,8.6,10.9,15.2,14.3
			c6.6,3.4,14,5.1,22.6,5.1c6.7,0,12.8-1,18.1-3.2c4.9-1.9,9-4.8,12.4-8.5c0.5-0.6,0.5-1.5,0-2.1l-7.7-8.8c-0.6-0.6-1.6-0.8-2.3-0.1
			c-5.3,4.9-12,7.3-20,7.3c-6.7,0-12.4-1.6-16.9-5.1c-4.5-3.4-7.3-8-8.5-13.6h58.9c1.4,0,2.5-1,2.5-2.4c0.1-1.3,0.1-2.1,0.1-3
			C158.1,166.5,156.3,159.5,153.1,153.4z M103.8,154c4-3.4,9-5.2,14.8-5.2c5.9,0,10.9,1.8,14.9,5.3c3.5,3,5.8,6.9,6.8,11.6H96.9
			C97.9,160.9,100.3,157,103.8,154z"/>
		<path class="st0" d="M551.8,213.1h13.5c0.9,0,1.6-0.8,1.6-1.6v-44.1c0-11.1-3-19.5-9.1-24.9c-6.1-5.6-16.5-8.6-28-8.6
			c-7.3,0-12,0.5-17.1,1.3c-0.8,0.1-1.4,0.9-1.4,1.6v11.8c0,1,0.9,1.8,1.9,1.6c7.1-1,22.9-2.9,30.4,3.7c3.3,2.9,4.9,7.1,4.9,12.6
			v1.1h-20.2c-11.2,0-19.5,2.1-24.6,6.3c-5.2,4.3-7.8,9.9-7.8,16.9c0,4.4,1.1,8.5,3.5,12c2.4,3.5,5.8,6.3,10.1,8.3
			c4.4,2,9.5,3,15.4,3c7.3,0,17.9-2.8,25-9.9v7.2C550.2,212.4,550.9,213.1,551.8,213.1z M548.8,191.8c-3.4,5.3-12.9,9.1-19.7,9.1
			c-4.7,0-8.3-1-11-2.9c-2.7-1.9-3.9-4.5-3.9-7.8c0-6.9,5.3-10.4,15.8-10.4h18.8V191.8z"/>
	</g>
	<path class="st3" d="M693.6,106.5L681.5,152c-2.5,9.5,3.2,19.3,12.6,21.9l45.5,12.1c1.3-4.9-1-10.1-5.6-12.4l-24.5-12.1
		c-6.4-3-10.2-9.7-9.6-16.8l1.9-26.9C702.1,112.5,698.7,107.9,693.6,106.5z"/>
	<path class="st3" d="M706.5,152.1c1.6,2.9,4.3,5.1,7.2,6.1c0.8,0.3,1.6,0.3,2.4-0.3l12.5-7.2c4.8-2.8,6.4-9.1,3.4-13.9
		c-2.9-4.5-9-5.8-13.5-3l-12.3,7.1c-0.8,0.4-1.3,1.1-1.4,2C704.4,145.9,704.9,149.2,706.5,152.1z"/>
	<path class="st4" d="M608.9,150.9l45.5,12.1c9.5,2.5,19.3-3.2,21.9-12.6l12.1-45.5c-4.9-1.3-10.1,1-12.4,5.6L663.8,135
		c-3,6.4-9.7,10.2-16.8,9.6l-26.9-1.9C615.1,142.5,610.3,145.9,608.9,150.9z"/>
	<path class="st4" d="M654.8,138.3c2.9-1.6,5.1-4.3,6.1-7.2c0.3-0.8,0.3-1.6-0.3-2.4l-7.2-12.5c-2.8-4.8-9.1-6.4-13.9-3.4
		c-4.5,2.9-5.8,9-3,13.5l7.1,12.3c0.4,0.8,1.1,1.3,2,1.4C648.6,140.5,651.9,140,654.8,138.3z"/>
	<path class="st5" d="M653.5,235.4l12.1-45.5c2.5-9.5-3.2-19.3-12.6-21.9l-45.5-12.1c-1.3,4.9,1,10.1,5.6,12.4l24.5,12.1
		c6.4,3,10.2,9.7,9.6,16.8l-1.9,26.9C645,229.2,648.4,234,653.5,235.4z"/>
	<path class="st5" d="M640.6,189.7c-1.6-2.9-4.3-5.1-7.2-6.1c-0.8-0.3-1.6-0.3-2.4,0.3l-12.5,7.2c-4.8,2.8-6.4,9.1-3.4,13.9
		c2.9,4.5,9,5.8,13.5,3l12.3-7.1c0.8-0.4,1.3-1.1,1.4-2C642.9,195.9,642.4,192.6,640.6,189.7z"/>
	<path class="st6" d="M738.2,190.9l-45.5-12.1c-9.5-2.5-19.3,3.2-21.9,12.6l-12.1,45.5c4.9,1.3,10.1-1,12.4-5.6l12.1-24.5
		c3-6.4,9.7-10.2,16.8-9.6l26.9,1.9C732.2,199.3,736.8,195.9,738.2,190.9z"/>
	<path class="st6" d="M692.6,203.8c-2.9,1.6-5.1,4.3-6.1,7.2c-0.3,0.8-0.3,1.6,0.3,2.4l7.2,12.5c2.8,4.8,9.1,6.4,13.9,3.4
		c4.5-2.9,5.8-9,3-13.5l-7.1-12.3c-0.4-0.8-1.1-1.3-2-1.4C698.9,201.5,695.7,202,692.6,203.8z"/>
</g>
<g>
	<g>
		<path class="st0" d="M946.8,232.6c1.8,1.8,2.7,4.3,2.7,7.7v13.1c0,0.3-0.2,0.5-0.5,0.5h-4.5c-0.3,0-0.5-0.2-0.5-0.5v-12.3
			c0-2.1-0.5-3.6-1.5-4.7c-1-1-2.4-1.6-4.2-1.6c-2,0-3.6,0.6-4.8,1.8c-1.2,1.2-1.8,3-1.8,5.3v11.5c0,0.3-0.2,0.5-0.5,0.5h-4.6
			c-0.3,0-0.5-0.2-0.5-0.5v-21.6c0-1.3,1.6-2,2.5-1.1l2.8,2.6c0.9-1.1,2.1-1.9,3.4-2.5c1.4-0.6,3-0.8,4.7-0.8
			C942.6,230,945,230.9,946.8,232.6z"/>
		<path class="st0" d="M960.1,252.8c-2-1-3.5-2.5-4.6-4.3c-1.1-1.8-1.6-3.9-1.6-6.3c0-2.3,0.5-4.4,1.6-6.2c1.1-1.8,2.6-3.3,4.6-4.3
			c2-1,4.1-1.6,6.6-1.6c2.3,0,4.4,0.5,6.1,1.4c1.6,0.9,2.9,2.1,3.8,3.6c0.1,0.2,0,0.5-0.2,0.7l-3.4,2c-0.2,0.1-0.5,0.1-0.7-0.2
			c-0.7-0.9-1.4-1.6-2.3-2.1c-1-0.5-2.1-0.8-3.3-0.8c-2.1,0-3.8,0.7-5.1,2c-1.3,1.3-2,3.1-2,5.4c0,2.3,0.7,4.1,2,5.4
			c1.3,1.3,3.1,2,5.2,2c1.2,0,2.3-0.3,3.3-0.8c0.9-0.5,1.7-1.2,2.3-2.1c0.2-0.2,0.4-0.3,0.7-0.2l3.4,2c0.2,0.2,0.3,0.4,0.2,0.7
			c-0.9,1.6-2.2,2.8-3.8,3.7c-1.8,1-3.8,1.5-6.1,1.5C964.3,254.3,962.1,253.8,960.1,252.8z"/>
		<path class="st0" d="M985.6,252.8c-1.9-1-3.4-2.5-4.5-4.3c-1.1-1.8-1.6-3.9-1.6-6.3c0-2.3,0.5-4.4,1.6-6.2
			c1.1-1.8,2.6-3.3,4.5-4.3c1.9-1,4.1-1.6,6.5-1.6c2.4,0,4.6,0.5,6.5,1.6c1.9,1,3.4,2.5,4.5,4.3c1.1,1.8,1.6,3.9,1.6,6.2
			c0,2.3-0.5,4.4-1.6,6.3c-1.1,1.8-2.6,3.3-4.5,4.3c-1.9,1-4.1,1.5-6.5,1.5C989.6,254.3,987.5,253.8,985.6,252.8z M997.1,247.5
			c1.3-1.3,2-3.1,2-5.4c0-2.2-0.7-4-2-5.4c-1.3-1.3-3-2-5.1-2c-2,0-3.7,0.7-5,2c-1.3,1.3-2,3.1-2,5.4c0,2.2,0.7,4,2,5.4
			c1.3,1.3,3,2,5,2C994.1,249.5,995.8,248.9,997.1,247.5z"/>
		<path class="st0" d="M1014.2,254c0.3,0,0.5-0.2,0.5-0.5v-13.3v-0.3c0-1.6,0.5-2.8,1.5-3.7c1-0.9,2.2-1.3,4.2-1.3
			c0,0,0.9,0,1.9,0.1c0.3,0,0.6-0.2,0.6-0.5v-3.6c0-0.2-0.2-0.5-0.4-0.5c-0.9-0.2-2-0.3-3-0.3c-3.4,0-5.6,0.8-7.5,2.5
			c-1.8,1.7-2.8,4.2-2.8,7.6v13.4c0,0.3,0.2,0.5,0.5,0.5H1014.2z"/>
		<path class="st0" d="M920.2,235.9c-1-1.8-2.5-3.3-4.3-4.3c-1.8-1-3.9-1.5-6.2-1.5c-2.3,0-4.4,0.5-6.3,1.6c-1.9,1-3.3,2.5-4.4,4.3
			c-1,1.8-1.6,3.9-1.6,6.2c0,2.3,0.5,4.4,1.6,6.3c1.1,1.8,2.6,3.3,4.6,4.3s4.3,1.5,6.9,1.5c2,0,3.9-0.3,5.5-1
			c1.5-0.6,2.7-1.5,3.8-2.6c0.2-0.2,0.2-0.5,0-0.7l-2.3-2.7c-0.2-0.2-0.5-0.2-0.7,0c-1.6,1.5-3.6,2.2-6.1,2.2c-2,0-3.8-0.5-5.1-1.5
			c-1.4-1-2.2-2.4-2.6-4.1h17.9c0.4,0,0.8-0.3,0.8-0.7c0-0.4,0-0.7,0-0.9C921.7,239.8,921.2,237.7,920.2,235.9z M905.3,236
			c1.2-1,2.7-1.6,4.5-1.6c1.8,0,3.3,0.5,4.5,1.6c1.1,0.9,1.8,2.1,2.1,3.5h-13.2C903.5,238.2,904.2,237,905.3,236z"/>
		<path class="st0" d="M1041.2,254h4.1c0.3,0,0.5-0.2,0.5-0.5v-13.4c0-3.4-0.9-5.9-2.8-7.6c-1.8-1.7-5-2.6-8.5-2.6
			c-2.2,0-3.6,0.2-5.2,0.4c-0.2,0-0.4,0.3-0.4,0.5v3.6c0,0.3,0.3,0.5,0.6,0.5c2.1-0.3,6.9-0.9,9.2,1.1c1,0.9,1.5,2.1,1.5,3.8v0.3
			h-6.1c-3.4,0-5.9,0.7-7.5,1.9c-1.6,1.3-2.4,3-2.4,5.1c0,1.3,0.3,2.6,1.1,3.6c0.7,1.1,1.8,1.9,3.1,2.5c1.3,0.6,2.9,0.9,4.7,0.9
			c2.2,0,5.4-0.8,7.6-3v2.2C1040.7,253.8,1040.9,254,1041.2,254z M1040.3,247.5c-1,1.6-3.9,2.8-6,2.8c-1.4,0-2.5-0.3-3.3-0.9
			c-0.8-0.6-1.2-1.4-1.2-2.4c0-2.1,1.6-3.1,4.8-3.1h5.7V247.5z"/>
	</g>
	<g>
		<path class="st3" d="M996.4,75.3l-13.2,49.4c-2.7,10.3,3.4,21,13.7,23.7l49.4,13.2c1.4-5.3-1.1-11-6-13.4l-26.6-13.2
			c-7-3.3-11.1-10.6-10.4-18.2l2.1-29.2C1005.6,81.9,1001.9,76.8,996.4,75.3z"/>
		<path class="st3" d="M1010.4,124.8c1.8,3.2,4.7,5.5,7.8,6.6c0.8,0.3,1.8,0.3,2.6-0.3l13.6-7.8c5.2-3,7-9.9,3.7-15.1
			c-3.2-4.9-9.7-6.3-14.7-3.3l-13.3,7.7c-0.8,0.4-1.4,1.2-1.5,2.2C1008,118.1,1008.6,121.6,1010.4,124.8z"/>
		<path class="st4" d="M904.4,123.6l49.4,13.2c10.3,2.7,21-3.4,23.7-13.7l13.2-49.4c-5.3-1.4-11,1.1-13.4,6L964,106.3
			c-3.3,7-10.6,11.1-18.2,10.4l-29.2-2.1C911.1,114.4,905.9,118.1,904.4,123.6z"/>
		<path class="st4" d="M954.2,109.8c3.2-1.8,5.5-4.7,6.6-7.8c0.3-0.8,0.3-1.8-0.3-2.6l-7.8-13.6c-3-5.2-9.9-7-15.1-3.7
			c-4.9,3.2-6.3,9.7-3.3,14.7l7.7,13.3c0.4,0.8,1.2,1.4,2.2,1.5C947.5,112.3,951.1,111.7,954.2,109.8z"/>
		<path class="st5" d="M952.8,215.2l13.2-49.4c2.7-10.3-3.4-21-13.7-23.7l-49.4-13.2c-1.4,5.3,1.1,11,6,13.4l26.6,13.2
			c7,3.3,11.1,10.6,10.4,18.2l-2.1,29.2C943.6,208.5,947.3,213.7,952.8,215.2z"/>
		<path class="st5" d="M938.8,165.7c-1.8-3.2-4.7-5.5-7.8-6.6c-0.8-0.3-1.8-0.3-2.6,0.3l-13.6,7.8c-5.2,3-7,9.9-3.7,15.1
			c3.2,4.9,9.7,6.3,14.7,3.3l13.3-7.7c0.8-0.4,1.4-1.2,1.5-2.2C941.3,172.4,940.7,168.8,938.8,165.7z"/>
		<path class="st6" d="M1044.8,166.9l-49.4-13.2c-10.3-2.7-21,3.4-23.7,13.7l-13.2,49.4c5.3,1.4,11-1.1,13.4-6l13.2-26.6
			c3.3-7,10.6-11.1,18.2-10.4l29.2,2.1C1038.2,176.1,1043.3,172.4,1044.8,166.9z"/>
		<path class="st6" d="M995.3,180.9c-3.2,1.8-5.5,4.7-6.6,7.8c-0.3,0.8-0.3,1.8,0.3,2.6l7.8,13.6c3,5.2,9.9,7,15.1,3.7
			c4.9-3.2,6.3-9.7,3.3-14.7l-7.7-13.3c-0.4-0.8-1.2-1.4-2.2-1.5C1002.1,178.4,998.6,179,995.3,180.9z"/>
	</g>
</g>
<g>
	<path class="st3" d="M309.8,420.9l-4.5,16.8c-0.9,3.5,1.2,7.1,4.7,8.1l16.8,4.5c0.5-1.8-0.4-3.7-2-4.6l-9-4.5
		c-2.4-1.1-3.8-3.6-3.5-6.2l0.7-9.9C313,423.1,311.7,421.4,309.8,420.9z"/>
	<g>
		<path class="st7" d="M142.9,434.3c2.2,2.1,3.3,5.3,3.3,9.4v15.9c0,0.3-0.3,0.6-0.6,0.6h-5.5c-0.3,0-0.6-0.3-0.6-0.6v-15
			c0-2.5-0.6-4.4-1.8-5.7c-1.2-1.3-2.9-1.9-5.1-1.9c-2.5,0-4.4,0.7-5.9,2.2c-1.4,1.5-2.1,3.6-2.1,6.4v13.9c0,0.3-0.3,0.6-0.6,0.6
			h-5.5c-0.3,0-0.6-0.3-0.6-0.6v-26.2c0-1.6,1.9-2.4,3.1-1.4l3.4,3.1c1.1-1.4,2.5-2.3,4.2-3c1.7-0.7,3.6-1,5.7-1
			C137.8,431.1,140.7,432.2,142.9,434.3z"/>
		<path class="st7" d="M159.1,458.7c-2.4-1.3-4.2-3-5.5-5.3c-1.3-2.2-2-4.8-2-7.6c0-2.8,0.7-5.4,2-7.6c1.3-2.2,3.2-4,5.5-5.2
			c2.4-1.3,5-1.9,8.1-1.9c2.8,0,5.3,0.6,7.4,1.7c2,1.1,3.5,2.5,4.6,4.4c0.1,0.3,0,0.7-0.2,0.8l-4.2,2.4c-0.3,0.1-0.6,0.1-0.8-0.2
			c-0.8-1.1-1.7-2-2.8-2.5c-1.3-0.7-2.6-1-4-1c-2.5,0-4.6,0.8-6.2,2.5c-1.6,1.6-2.5,3.8-2.5,6.6c0,2.7,0.8,4.9,2.5,6.6
			c1.6,1.6,3.7,2.5,6.3,2.5c1.5,0,2.8-0.3,4-1c1.1-0.6,2-1.4,2.8-2.5c0.2-0.2,0.5-0.3,0.8-0.2l4.1,2.4c0.3,0.2,0.4,0.5,0.2,0.8
			c-1.1,1.9-2.7,3.4-4.6,4.5c-2.1,1.2-4.6,1.8-7.4,1.8C164.2,460.6,161.5,460,159.1,458.7z"/>
		<path class="st7" d="M190,458.7c-2.3-1.3-4.1-3-5.4-5.3c-1.3-2.2-2-4.8-2-7.6c0-2.8,0.7-5.4,2-7.6c1.3-2.2,3.1-4,5.4-5.2
			c2.3-1.3,4.9-1.9,7.9-1.9c2.9,0,5.6,0.7,7.9,1.9c2.3,1.3,4.1,3,5.4,5.2c1.3,2.2,2,4.7,2,7.6c0,2.8-0.7,5.4-2,7.6
			c-1.3,2.2-3.1,4-5.4,5.3c-2.3,1.3-5,1.9-7.9,1.9C195,460.6,192.4,460,190,458.7z M204,452.3c1.6-1.6,2.4-3.8,2.4-6.5
			c0-2.7-0.8-4.8-2.4-6.5c-1.6-1.6-3.7-2.5-6.1-2.5c-2.5,0-4.5,0.8-6.1,2.5c-1.6,1.6-2.4,3.8-2.4,6.5c0,2.7,0.8,4.9,2.4,6.5
			c1.6,1.6,3.6,2.5,6.1,2.5C200.4,454.8,202.4,454,204,452.3z"/>
		<path class="st7" d="M224.8,460.2c0.3,0,0.6-0.3,0.6-0.6v-16.2V443c0-2,0.6-3.4,1.8-4.5c1.2-1.1,2.7-1.6,5.1-1.6
			c0,0,1.1,0,2.3,0.1c0.4,0,0.7-0.2,0.7-0.6v-4.3c0-0.3-0.2-0.6-0.5-0.6c-1.1-0.2-2.5-0.3-3.7-0.3c-4.1,0-6.8,1-9.1,3
			c-2.2,2-3.4,5.1-3.4,9.2v16.3c0,0.3,0.3,0.6,0.6,0.6H224.8z"/>
		<path class="st7" d="M110.6,438.2c-1.3-2.2-3-4-5.2-5.2c-2.2-1.3-4.7-1.9-7.5-1.9c-2.8,0-5.4,0.7-7.6,1.9c-2.3,1.3-4,3-5.3,5.3
			c-1.3,2.2-1.9,4.7-1.9,7.6c0,2.8,0.7,5.4,2,7.6c1.3,2.2,3.2,4,5.6,5.3c2.4,1.3,5.2,1.9,8.3,1.9c2.5,0,4.7-0.4,6.7-1.2
			c1.8-0.7,3.3-1.8,4.6-3.1c0.2-0.2,0.2-0.6,0-0.8l-2.8-3.3c-0.2-0.2-0.6-0.3-0.8,0c-2,1.8-4.4,2.7-7.4,2.7c-2.5,0-4.6-0.6-6.2-1.9
			c-1.7-1.3-2.7-2.9-3.1-5h21.7c0.5,0,0.9-0.4,0.9-0.9c0-0.5,0-0.8,0-1.1C112.5,443,111.8,440.4,110.6,438.2z M92.5,438.4
			c1.5-1.3,3.3-1.9,5.4-1.9c2.2,0,4,0.7,5.5,2c1.3,1.1,2.1,2.6,2.5,4.3h-16C90.3,441,91.2,439.5,92.5,438.4z"/>
		<path class="st7" d="M257.6,460.2h5c0.3,0,0.6-0.3,0.6-0.6v-16.3c0-4.1-1.1-7.2-3.4-9.2c-2.2-2-6.1-3.2-10.3-3.2
			c-2.7,0-4.4,0.2-6.3,0.5c-0.3,0-0.5,0.3-0.5,0.6v4.3c0,0.4,0.3,0.7,0.7,0.6c2.6-0.4,8.4-1.1,11.2,1.4c1.2,1.1,1.8,2.6,1.8,4.7v0.4
			H249c-4.1,0-7.2,0.8-9.1,2.3c-1.9,1.6-2.9,3.6-2.9,6.2c0,1.6,0.4,3.1,1.3,4.4c0.9,1.3,2.1,2.3,3.7,3.1c1.6,0.7,3.5,1.1,5.7,1.1
			c2.7,0,6.6-1,9.2-3.6v2.7C257,459.9,257.2,460.2,257.6,460.2z M256.5,452.3c-1.3,2-4.7,3.4-7.3,3.4c-1.7,0-3.1-0.4-4-1.1
			c-1-0.7-1.4-1.7-1.4-2.9c0-2.6,2-3.8,5.8-3.8h6.9V452.3z"/>
		<path class="st3" d="M314.6,437.7c0.6,1.1,1.6,1.9,2.7,2.2c0.3,0.1,0.6,0.1,0.9-0.1l4.6-2.7c1.8-1,2.4-3.4,1.3-5.1
			c-1.1-1.7-3.3-2.1-5-1.1l-4.5,2.6c-0.3,0.1-0.5,0.4-0.5,0.7C313.8,435.4,314,436.6,314.6,437.7z"/>
		<path class="st4" d="M278.6,437.3l16.8,4.5c3.5,0.9,7.1-1.2,8.1-4.7l4.5-16.8c-1.8-0.5-3.7,0.4-4.6,2l-4.5,9
			c-1.1,2.4-3.6,3.8-6.2,3.5l-9.9-0.7C280.9,434.2,279.1,435.4,278.6,437.3z"/>
		<path class="st4" d="M295.5,432.6c1.1-0.6,1.9-1.6,2.2-2.7c0.1-0.3,0.1-0.6-0.1-0.9l-2.7-4.6c-1-1.8-3.4-2.4-5.1-1.3
			c-1.7,1.1-2.1,3.3-1.1,5l2.6,4.5c0.1,0.3,0.4,0.5,0.7,0.5C293.3,433.4,294.5,433.3,295.5,432.6z"/>
		<path class="st5" d="M295,468.4l4.5-16.8c0.9-3.5-1.2-7.1-4.7-8.1l-16.8-4.5c-0.5,1.8,0.4,3.7,2,4.6l9,4.5
			c2.4,1.1,3.8,3.6,3.5,6.2l-0.7,9.9C291.9,466.1,293.2,467.9,295,468.4z"/>
		<path class="st5" d="M290.3,451.6c-0.6-1.1-1.6-1.9-2.7-2.2c-0.3-0.1-0.6-0.1-0.9,0.1l-4.6,2.7c-1.8,1-2.4,3.4-1.3,5.1
			c1.1,1.7,3.3,2.1,5,1.1l4.5-2.6c0.3-0.1,0.5-0.4,0.5-0.7C291.1,453.9,291,452.6,290.3,451.6z"/>
		<path class="st6" d="M326.3,452l-16.8-4.5c-3.5-0.9-7.1,1.2-8.1,4.7l-4.5,16.8c1.8,0.5,3.7-0.4,4.6-2l4.5-9
			c1.1-2.4,3.6-3.8,6.2-3.5l9.9,0.7C324,455.1,325.8,453.9,326.3,452z"/>
		<path class="st6" d="M309.5,456.7c-1.1,0.6-1.9,1.6-2.2,2.7c-0.1,0.3-0.1,0.6,0.1,0.9l2.7,4.6c1,1.8,3.4,2.4,5.1,1.3
			c1.7-1.1,2.1-3.3,1.1-5l-2.6-4.5c-0.1-0.3-0.4-0.5-0.7-0.5C311.8,455.9,310.6,456.1,309.5,456.7z"/>
	</g>
</g>
<g>
	<path class="st7" d="M485.4,434.3c2.2,2.1,3.3,5.3,3.3,9.4v15.9c0,0.3-0.3,0.6-0.6,0.6h-5.5c-0.3,0-0.6-0.3-0.6-0.6v-15
		c0-2.5-0.6-4.4-1.8-5.7c-1.2-1.3-2.9-1.9-5.1-1.9c-2.5,0-4.4,0.7-5.9,2.2c-1.4,1.5-2.1,3.6-2.1,6.4v13.9c0,0.3-0.3,0.6-0.6,0.6H461
		c-0.3,0-0.6-0.3-0.6-0.6v-26.2c0-1.6,1.9-2.4,3.1-1.4l3.4,3.1c1.1-1.4,2.5-2.3,4.2-3c1.7-0.7,3.6-1,5.7-1
		C480.3,431.1,483.2,432.2,485.4,434.3z"/>
	<path class="st7" d="M501.6,458.7c-2.4-1.3-4.2-3-5.5-5.3c-1.3-2.2-2-4.8-2-7.6c0-2.8,0.7-5.4,2-7.6c1.4-2.2,3.2-4,5.5-5.2
		c2.4-1.3,5-1.9,8.1-1.9c2.8,0,5.3,0.6,7.4,1.7c2,1.1,3.5,2.5,4.6,4.4c0.1,0.3,0,0.7-0.2,0.8l-4.2,2.4c-0.3,0.1-0.6,0.1-0.8-0.2
		c-0.8-1.1-1.7-2-2.8-2.5c-1.3-0.7-2.6-1-4.1-1c-2.5,0-4.6,0.8-6.2,2.5c-1.6,1.6-2.5,3.8-2.5,6.6c0,2.7,0.8,4.9,2.5,6.6
		c1.6,1.6,3.7,2.5,6.3,2.5c1.5,0,2.8-0.3,4.1-1c1.1-0.6,2-1.4,2.8-2.5c0.2-0.2,0.5-0.3,0.8-0.2l4.1,2.4c0.3,0.2,0.4,0.5,0.2,0.8
		c-1.1,1.9-2.7,3.4-4.6,4.5c-2.1,1.2-4.6,1.8-7.4,1.8C506.7,460.6,504,460,501.6,458.7z"/>
	<path class="st7" d="M532.5,458.7c-2.3-1.3-4.1-3-5.4-5.3c-1.3-2.2-2-4.8-2-7.6c0-2.8,0.7-5.4,2-7.6c1.3-2.2,3.1-4,5.4-5.2
		c2.3-1.3,4.9-1.9,7.9-1.9s5.6,0.7,7.9,1.9c2.3,1.3,4.1,3,5.4,5.2c1.3,2.2,2,4.7,2,7.6c0,2.8-0.7,5.4-2,7.6c-1.3,2.2-3.1,4-5.4,5.3
		c-2.3,1.3-5,1.9-7.9,1.9S534.9,460,532.5,458.7z M546.5,452.3c1.6-1.6,2.4-3.8,2.4-6.5c0-2.7-0.8-4.8-2.4-6.5
		c-1.6-1.6-3.7-2.5-6.1-2.5c-2.5,0-4.5,0.8-6.1,2.5c-1.6,1.6-2.4,3.8-2.4,6.5c0,2.7,0.8,4.9,2.4,6.5c1.6,1.6,3.6,2.5,6.1,2.5
		C542.9,454.8,544.9,454,546.5,452.3z"/>
	<path class="st7" d="M567.3,460.2c0.3,0,0.6-0.3,0.6-0.6v-16.2V443c0-2,0.6-3.4,1.8-4.5c1.2-1.1,2.7-1.6,5.1-1.6c0,0,1.1,0,2.3,0.1
		c0.4,0,0.7-0.2,0.7-0.6v-4.3c0-0.3-0.2-0.6-0.5-0.6c-1.1-0.2-2.5-0.3-3.7-0.3c-4.1,0-6.8,1-9.1,3c-2.2,2-3.4,5.1-3.4,9.2v16.3
		c0,0.3,0.3,0.6,0.6,0.6H567.3z"/>
	<path class="st7" d="M453.1,438.2c-1.3-2.2-3-4-5.2-5.2c-2.2-1.3-4.7-1.9-7.5-1.9c-2.8,0-5.4,0.7-7.6,1.9c-2.3,1.3-4.1,3-5.3,5.3
		c-1.3,2.2-1.9,4.7-1.9,7.6c0,2.8,0.7,5.4,2,7.6c1.3,2.2,3.2,4,5.6,5.3c2.4,1.3,5.2,1.9,8.3,1.9c2.5,0,4.7-0.4,6.7-1.2
		c1.8-0.7,3.3-1.8,4.6-3.1c0.2-0.2,0.2-0.6,0-0.8l-2.8-3.3c-0.2-0.2-0.6-0.3-0.8,0c-2,1.8-4.4,2.7-7.4,2.7c-2.5,0-4.6-0.6-6.2-1.9
		c-1.7-1.3-2.7-2.9-3.1-5H454c0.5,0,0.9-0.4,0.9-0.9c0-0.5,0-0.8,0-1.1C455,443,454.3,440.4,453.1,438.2z M435,438.4
		c1.5-1.3,3.3-1.9,5.4-1.9c2.2,0,4,0.7,5.5,2c1.3,1.1,2.1,2.6,2.5,4.3h-16C432.8,441,433.7,439.5,435,438.4z"/>
	<path class="st7" d="M600.1,460.2h5c0.3,0,0.6-0.3,0.6-0.6v-16.3c0-4.1-1.1-7.2-3.4-9.2c-2.2-2-6.1-3.2-10.3-3.2
		c-2.7,0-4.4,0.2-6.3,0.5c-0.3,0-0.5,0.3-0.5,0.6v4.3c0,0.4,0.3,0.7,0.7,0.6c2.6-0.4,8.4-1.1,11.2,1.4c1.2,1.1,1.8,2.6,1.8,4.7v0.4
		h-7.4c-4.1,0-7.2,0.8-9.1,2.3c-1.9,1.6-2.9,3.6-2.9,6.2c0,1.6,0.4,3.1,1.3,4.4c0.9,1.3,2.1,2.3,3.7,3.1c1.6,0.7,3.5,1.1,5.7,1.1
		c2.7,0,6.6-1,9.2-3.6v2.7C599.5,459.9,599.8,460.2,600.1,460.2z M599,452.3c-1.3,2-4.7,3.4-7.3,3.4c-1.7,0-3.1-0.4-4-1.1
		c-1-0.7-1.4-1.7-1.4-2.9c0-2.6,2-3.8,5.8-3.8h6.9V452.3z"/>
	<path class="st7" d="M652.4,420.9l-4.5,16.8c-0.9,3.5,1.2,7.1,4.7,8.1l16.8,4.5c0.5-1.8-0.4-3.7-2-4.6l-9-4.5
		c-2.4-1.1-3.8-3.6-3.5-6.2l0.7-9.9C655.5,423.1,654.2,421.4,652.4,420.9z"/>
	<path class="st7" d="M657.1,437.7c0.6,1.1,1.6,1.9,2.7,2.2c0.3,0.1,0.6,0.1,0.9-0.1l4.6-2.7c1.8-1,2.4-3.4,1.3-5.1
		c-1.1-1.7-3.3-2.1-5-1.1l-4.5,2.6c-0.3,0.1-0.5,0.4-0.5,0.7C656.3,435.4,656.5,436.6,657.1,437.7z"/>
	<path class="st7" d="M621.1,437.3l16.8,4.5c3.5,0.9,7.1-1.2,8.1-4.7l4.5-16.8c-1.8-0.5-3.7,0.4-4.6,2l-4.5,9
		c-1.1,2.4-3.6,3.8-6.2,3.5l-9.9-0.7C623.4,434.2,621.6,435.4,621.1,437.3z"/>
	<path class="st7" d="M638,432.6c1.1-0.6,1.9-1.6,2.2-2.7c0.1-0.3,0.1-0.6-0.1-0.9l-2.7-4.6c-1-1.8-3.4-2.4-5.1-1.3
		c-1.7,1.1-2.1,3.3-1.1,5l2.6,4.5c0.1,0.3,0.4,0.5,0.7,0.5C635.8,433.4,637,433.3,638,432.6z"/>
	<path class="st7" d="M637.6,468.4l4.5-16.8c0.9-3.5-1.2-7.1-4.7-8.1l-16.8-4.5c-0.5,1.8,0.4,3.7,2,4.6l9,4.5
		c2.4,1.1,3.8,3.6,3.5,6.2l-0.7,9.9C634.4,466.1,635.7,467.9,637.6,468.4z"/>
	<path class="st7" d="M632.8,451.6c-0.6-1.1-1.6-1.9-2.7-2.2c-0.3-0.1-0.6-0.1-0.9,0.1l-4.6,2.7c-1.8,1-2.4,3.4-1.3,5.1
		c1.1,1.7,3.3,2.1,5,1.1l4.5-2.6c0.3-0.1,0.5-0.4,0.5-0.7C633.6,453.9,633.5,452.6,632.8,451.6z"/>
	<path class="st7" d="M668.8,452l-16.8-4.5c-3.5-0.9-7.1,1.2-8.1,4.7l-4.5,16.8c1.8,0.5,3.7-0.4,4.6-2l4.5-9
		c1.1-2.4,3.6-3.8,6.2-3.5l9.9,0.7C666.6,455.1,668.3,453.9,668.8,452z"/>
	<path class="st7" d="M652,456.7c-1.1,0.6-1.9,1.6-2.2,2.7c-0.1,0.3-0.1,0.6,0.1,0.9l2.7,4.6c1,1.8,3.4,2.4,5.1,1.3
		c1.7-1.1,2.1-3.3,1.1-5l-2.6-4.5c-0.1-0.3-0.4-0.5-0.7-0.5C654.3,455.9,653.1,456.1,652,456.7z"/>
</g>
<g>
	<path d="M142.9,657.5c2.2,2.1,3.3,5.3,3.3,9.4v15.9c0,0.3-0.3,0.6-0.6,0.6h-5.5c-0.3,0-0.6-0.3-0.6-0.6v-15c0-2.5-0.6-4.4-1.8-5.7
		c-1.2-1.3-2.9-1.9-5.1-1.9c-2.5,0-4.4,0.7-5.9,2.2c-1.4,1.5-2.1,3.6-2.1,6.4v13.9c0,0.3-0.3,0.6-0.6,0.6h-5.5
		c-0.3,0-0.6-0.3-0.6-0.6v-26.2c0-1.6,1.9-2.4,3.1-1.4l3.4,3.1c1.1-1.4,2.5-2.3,4.2-3c1.7-0.7,3.6-1,5.7-1
		C137.8,654.3,140.7,655.4,142.9,657.5z"/>
	<path d="M159.1,681.9c-2.4-1.3-4.2-3-5.5-5.3c-1.3-2.2-2-4.8-2-7.6c0-2.8,0.7-5.4,2-7.6c1.3-2.2,3.2-4,5.5-5.2
		c2.4-1.3,5-1.9,8.1-1.9c2.8,0,5.3,0.6,7.4,1.7c2,1.1,3.5,2.5,4.6,4.4c0.1,0.3,0,0.7-0.2,0.8l-4.2,2.4c-0.3,0.1-0.6,0.1-0.8-0.2
		c-0.8-1.1-1.7-2-2.8-2.5c-1.3-0.7-2.6-1-4-1c-2.5,0-4.6,0.8-6.2,2.5c-1.6,1.6-2.5,3.8-2.5,6.6c0,2.7,0.8,4.9,2.5,6.6
		c1.6,1.6,3.7,2.5,6.3,2.5c1.5,0,2.8-0.3,4-1c1.1-0.6,2-1.4,2.8-2.5c0.2-0.2,0.5-0.3,0.8-0.2l4.1,2.4c0.3,0.2,0.4,0.5,0.2,0.8
		c-1.1,1.9-2.7,3.4-4.6,4.5c-2.1,1.2-4.6,1.8-7.4,1.8C164.2,683.8,161.5,683.2,159.1,681.9z"/>
	<path d="M190,681.9c-2.3-1.3-4.1-3-5.4-5.3c-1.3-2.2-2-4.8-2-7.6c0-2.8,0.7-5.4,2-7.6c1.3-2.2,3.1-4,5.4-5.2
		c2.3-1.3,4.9-1.9,7.9-1.9c2.9,0,5.6,0.7,7.9,1.9c2.3,1.3,4.1,3,5.4,5.2c1.3,2.2,2,4.7,2,7.6c0,2.8-0.7,5.4-2,7.6
		c-1.3,2.2-3.1,4-5.4,5.3c-2.3,1.3-5,1.9-7.9,1.9C195,683.8,192.4,683.2,190,681.9z M204,675.6c1.6-1.6,2.4-3.8,2.4-6.5
		c0-2.7-0.8-4.8-2.4-6.5c-1.6-1.6-3.7-2.5-6.1-2.5c-2.5,0-4.5,0.8-6.1,2.5c-1.6,1.6-2.4,3.8-2.4,6.5c0,2.7,0.8,4.9,2.4,6.5
		c1.6,1.6,3.6,2.5,6.1,2.5C200.4,678,202.4,677.2,204,675.6z"/>
	<path d="M224.8,683.4c0.3,0,0.6-0.3,0.6-0.6v-16.2v-0.4c0-2,0.6-3.4,1.8-4.5c1.2-1.1,2.7-1.6,5.1-1.6c0,0,1.1,0,2.3,0.1
		c0.4,0,0.7-0.2,0.7-0.6v-4.3c0-0.3-0.2-0.6-0.5-0.6c-1.1-0.2-2.5-0.3-3.7-0.3c-4.1,0-6.8,1-9.1,3c-2.2,2-3.4,5.1-3.4,9.2v16.3
		c0,0.3,0.3,0.6,0.6,0.6H224.8z"/>
	<path d="M110.6,661.4c-1.3-2.2-3-4-5.2-5.2c-2.2-1.3-4.7-1.9-7.5-1.9c-2.8,0-5.4,0.7-7.6,1.9c-2.3,1.3-4,3-5.3,5.3
		c-1.3,2.2-1.9,4.7-1.9,7.6c0,2.8,0.7,5.4,2,7.6c1.3,2.2,3.2,4,5.6,5.3c2.4,1.3,5.2,1.9,8.3,1.9c2.5,0,4.7-0.4,6.7-1.2
		c1.8-0.7,3.3-1.8,4.6-3.1c0.2-0.2,0.2-0.6,0-0.8l-2.8-3.3c-0.2-0.2-0.6-0.3-0.8,0c-2,1.8-4.4,2.7-7.4,2.7c-2.5,0-4.6-0.6-6.2-1.9
		c-1.7-1.3-2.7-2.9-3.1-5h21.7c0.5,0,0.9-0.4,0.9-0.9c0-0.5,0-0.8,0-1.1C112.5,666.2,111.8,663.7,110.6,661.4z M92.5,661.6
		c1.5-1.3,3.3-1.9,5.4-1.9c2.2,0,4,0.7,5.5,2c1.3,1.1,2.1,2.6,2.5,4.3h-16C90.3,664.2,91.2,662.8,92.5,661.6z"/>
	<path d="M257.6,683.4h5c0.3,0,0.6-0.3,0.6-0.6v-16.3c0-4.1-1.1-7.2-3.4-9.2c-2.2-2-6.1-3.2-10.3-3.2c-2.7,0-4.4,0.2-6.3,0.5
		c-0.3,0-0.5,0.3-0.5,0.6v4.3c0,0.4,0.3,0.7,0.7,0.6c2.6-0.4,8.4-1.1,11.2,1.4c1.2,1.1,1.8,2.6,1.8,4.7v0.4H249
		c-4.1,0-7.2,0.8-9.1,2.3c-1.9,1.6-2.9,3.6-2.9,6.2c0,1.6,0.4,3.1,1.3,4.4c0.9,1.3,2.1,2.3,3.7,3.1c1.6,0.7,3.5,1.1,5.7,1.1
		c2.7,0,6.6-1,9.2-3.6v2.7C257,683.2,257.2,683.4,257.6,683.4z M256.5,675.6c-1.3,2-4.7,3.4-7.3,3.4c-1.7,0-3.1-0.4-4-1.1
		c-1-0.7-1.4-1.7-1.4-2.9c0-2.6,2-3.8,5.8-3.8h6.9V675.6z"/>
	<path d="M309.8,644.1l-4.5,16.8c-0.9,3.5,1.2,7.1,4.7,8.1l16.8,4.5c0.5-1.8-0.4-3.7-2-4.6l-9-4.5c-2.4-1.1-3.8-3.6-3.5-6.2l0.7-9.9
		C313,646.4,311.7,644.6,309.8,644.1z"/>
	<path d="M314.6,660.9c0.6,1.1,1.6,1.9,2.7,2.2c0.3,0.1,0.6,0.1,0.9-0.1l4.6-2.7c1.8-1,2.4-3.4,1.3-5.1c-1.1-1.7-3.3-2.1-5-1.1
		l-4.5,2.6c-0.3,0.1-0.5,0.4-0.5,0.7C313.8,658.7,314,659.9,314.6,660.9z"/>
	<path d="M278.6,660.5l16.8,4.5c3.5,0.9,7.1-1.2,8.1-4.7l4.5-16.8c-1.8-0.5-3.7,0.4-4.6,2l-4.5,9c-1.1,2.4-3.6,3.8-6.2,3.5l-9.9-0.7
		C280.9,657.4,279.1,658.7,278.6,660.5z"/>
	<path d="M295.5,655.8c1.1-0.6,1.9-1.6,2.2-2.7c0.1-0.3,0.1-0.6-0.1-0.9l-2.7-4.6c-1-1.8-3.4-2.4-5.1-1.3c-1.7,1.1-2.1,3.3-1.1,5
		l2.6,4.5c0.1,0.3,0.4,0.5,0.7,0.5C293.3,656.7,294.5,656.5,295.5,655.8z"/>
	<path d="M295,691.6l4.5-16.8c0.9-3.5-1.2-7.1-4.7-8.1l-16.8-4.5c-0.5,1.8,0.4,3.7,2,4.6l9,4.5c2.4,1.1,3.8,3.6,3.5,6.2l-0.7,9.9
		C291.9,689.3,293.2,691.1,295,691.6z"/>
	<path d="M290.3,674.8c-0.6-1.1-1.6-1.9-2.7-2.2c-0.3-0.1-0.6-0.1-0.9,0.1l-4.6,2.7c-1.8,1-2.4,3.4-1.3,5.1c1.1,1.7,3.3,2.1,5,1.1
		l4.5-2.6c0.3-0.1,0.5-0.4,0.5-0.7C291.1,677.1,291,675.9,290.3,674.8z"/>
	<path d="M326.3,675.2l-16.8-4.5c-3.5-0.9-7.1,1.2-8.1,4.7l-4.5,16.8c1.8,0.5,3.7-0.4,4.6-2l4.5-9c1.1-2.4,3.6-3.8,6.2-3.5l9.9,0.7
		C324,678.4,325.8,677.1,326.3,675.2z"/>
	<path d="M309.5,680c-1.1,0.6-1.9,1.6-2.2,2.7c-0.1,0.3-0.1,0.6,0.1,0.9l2.7,4.6c1,1.8,3.4,2.4,5.1,1.3c1.7-1.1,2.1-3.3,1.1-5
		l-2.6-4.5c-0.1-0.3-0.4-0.5-0.7-0.5C311.8,679.1,310.6,679.3,309.5,680z"/>
</g>
<g>
	<path class="st8" d="M485.4,657.5c2.2,2.1,3.3,5.3,3.3,9.4v15.9c0,0.3-0.3,0.6-0.6,0.6h-5.5c-0.3,0-0.6-0.3-0.6-0.6v-15
		c0-2.5-0.6-4.4-1.8-5.7c-1.2-1.3-2.9-1.9-5.1-1.9c-2.5,0-4.4,0.7-5.9,2.2c-1.4,1.5-2.1,3.6-2.1,6.4v13.9c0,0.3-0.3,0.6-0.6,0.6H461
		c-0.3,0-0.6-0.3-0.6-0.6v-26.2c0-1.6,1.9-2.4,3.1-1.4l3.4,3.1c1.1-1.4,2.5-2.3,4.2-3c1.7-0.7,3.6-1,5.7-1
		C480.3,654.3,483.2,655.4,485.4,657.5z"/>
	<path class="st8" d="M501.6,681.9c-2.4-1.3-4.2-3-5.5-5.3c-1.3-2.2-2-4.8-2-7.6c0-2.8,0.7-5.4,2-7.6c1.4-2.2,3.2-4,5.5-5.2
		c2.4-1.3,5-1.9,8.1-1.9c2.8,0,5.3,0.6,7.4,1.7c2,1.1,3.5,2.5,4.6,4.4c0.1,0.3,0,0.7-0.2,0.8l-4.2,2.4c-0.3,0.1-0.6,0.1-0.8-0.2
		c-0.8-1.1-1.7-2-2.8-2.5c-1.3-0.7-2.6-1-4.1-1c-2.5,0-4.6,0.8-6.2,2.5c-1.6,1.6-2.5,3.8-2.5,6.6c0,2.7,0.8,4.9,2.5,6.6
		c1.6,1.6,3.7,2.5,6.3,2.5c1.5,0,2.8-0.3,4.1-1c1.1-0.6,2-1.4,2.8-2.5c0.2-0.2,0.5-0.3,0.8-0.2l4.1,2.4c0.3,0.2,0.4,0.5,0.2,0.8
		c-1.1,1.9-2.7,3.4-4.6,4.5c-2.1,1.2-4.6,1.8-7.4,1.8C506.7,683.8,504,683.2,501.6,681.9z"/>
	<path class="st8" d="M532.5,681.9c-2.3-1.3-4.1-3-5.4-5.3c-1.3-2.2-2-4.8-2-7.6c0-2.8,0.7-5.4,2-7.6c1.3-2.2,3.1-4,5.4-5.2
		s4.9-1.9,7.9-1.9s5.6,0.7,7.9,1.9s4.1,3,5.4,5.2c1.3,2.2,2,4.7,2,7.6c0,2.8-0.7,5.4-2,7.6c-1.3,2.2-3.1,4-5.4,5.3
		c-2.3,1.3-5,1.9-7.9,1.9S534.9,683.2,532.5,681.9z M546.5,675.6c1.6-1.6,2.4-3.8,2.4-6.5c0-2.7-0.8-4.8-2.4-6.5
		c-1.6-1.6-3.7-2.5-6.1-2.5c-2.5,0-4.5,0.8-6.1,2.5c-1.6,1.6-2.4,3.8-2.4,6.5c0,2.7,0.8,4.9,2.4,6.5c1.6,1.6,3.6,2.5,6.1,2.5
		C542.9,678,544.9,677.2,546.5,675.6z"/>
	<path class="st8" d="M567.3,683.4c0.3,0,0.6-0.3,0.6-0.6v-16.2v-0.4c0-2,0.6-3.4,1.8-4.5c1.2-1.1,2.7-1.6,5.1-1.6
		c0,0,1.1,0,2.3,0.1c0.4,0,0.7-0.2,0.7-0.6v-4.3c0-0.3-0.2-0.6-0.5-0.6c-1.1-0.2-2.5-0.3-3.7-0.3c-4.1,0-6.8,1-9.1,3
		c-2.2,2-3.4,5.1-3.4,9.2v16.3c0,0.3,0.3,0.6,0.6,0.6H567.3z"/>
	<path class="st8" d="M453.1,661.4c-1.3-2.2-3-4-5.2-5.2c-2.2-1.3-4.7-1.9-7.5-1.9c-2.8,0-5.4,0.7-7.6,1.9c-2.3,1.3-4.1,3-5.3,5.3
		c-1.3,2.2-1.9,4.7-1.9,7.6c0,2.8,0.7,5.4,2,7.6c1.3,2.2,3.2,4,5.6,5.3c2.4,1.3,5.2,1.9,8.3,1.9c2.5,0,4.7-0.4,6.7-1.2
		c1.8-0.7,3.3-1.8,4.6-3.1c0.2-0.2,0.2-0.6,0-0.8l-2.8-3.3c-0.2-0.2-0.6-0.3-0.8,0c-2,1.8-4.4,2.7-7.4,2.7c-2.5,0-4.6-0.6-6.2-1.9
		c-1.7-1.3-2.7-2.9-3.1-5H454c0.5,0,0.9-0.4,0.9-0.9c0-0.5,0-0.8,0-1.1C455,666.2,454.3,663.7,453.1,661.4z M435,661.6
		c1.5-1.3,3.3-1.9,5.4-1.9c2.2,0,4,0.7,5.5,2c1.3,1.1,2.1,2.6,2.5,4.3h-16C432.8,664.2,433.7,662.8,435,661.6z"/>
	<path class="st8" d="M600.1,683.4h5c0.3,0,0.6-0.3,0.6-0.6v-16.3c0-4.1-1.1-7.2-3.4-9.2c-2.2-2-6.1-3.2-10.3-3.2
		c-2.7,0-4.4,0.2-6.3,0.5c-0.3,0-0.5,0.3-0.5,0.6v4.3c0,0.4,0.3,0.7,0.7,0.6c2.6-0.4,8.4-1.1,11.2,1.4c1.2,1.1,1.8,2.6,1.8,4.7v0.4
		h-7.4c-4.1,0-7.2,0.8-9.1,2.3c-1.9,1.6-2.9,3.6-2.9,6.2c0,1.6,0.4,3.1,1.3,4.4c0.9,1.3,2.1,2.3,3.7,3.1c1.6,0.7,3.5,1.1,5.7,1.1
		c2.7,0,6.6-1,9.2-3.6v2.7C599.5,683.2,599.8,683.4,600.1,683.4z M599,675.6c-1.3,2-4.7,3.4-7.3,3.4c-1.7,0-3.1-0.4-4-1.1
		c-1-0.7-1.4-1.7-1.4-2.9c0-2.6,2-3.8,5.8-3.8h6.9V675.6z"/>
	<path class="st8" d="M652.4,644.1l-4.5,16.8c-0.9,3.5,1.2,7.1,4.7,8.1l16.8,4.5c0.5-1.8-0.4-3.7-2-4.6l-9-4.5
		c-2.4-1.1-3.8-3.6-3.5-6.2l0.7-9.9C655.5,646.4,654.2,644.6,652.4,644.1z"/>
	<path class="st8" d="M657.1,660.9c0.6,1.1,1.6,1.9,2.7,2.2c0.3,0.1,0.6,0.1,0.9-0.1l4.6-2.7c1.8-1,2.4-3.4,1.3-5.1
		c-1.1-1.7-3.3-2.1-5-1.1l-4.5,2.6c-0.3,0.1-0.5,0.4-0.5,0.7C656.3,658.7,656.5,659.9,657.1,660.9z"/>
	<path class="st8" d="M621.1,660.5l16.8,4.5c3.5,0.9,7.1-1.2,8.1-4.7l4.5-16.8c-1.8-0.5-3.7,0.4-4.6,2l-4.5,9
		c-1.1,2.4-3.6,3.8-6.2,3.5l-9.9-0.7C623.4,657.4,621.6,658.7,621.1,660.5z"/>
	<path class="st8" d="M638,655.8c1.1-0.6,1.9-1.6,2.2-2.7c0.1-0.3,0.1-0.6-0.1-0.9l-2.7-4.6c-1-1.8-3.4-2.4-5.1-1.3
		c-1.7,1.1-2.1,3.3-1.1,5l2.6,4.5c0.1,0.3,0.4,0.5,0.7,0.5C635.8,656.7,637,656.5,638,655.8z"/>
	<path class="st8" d="M637.6,691.6l4.5-16.8c0.9-3.5-1.2-7.1-4.7-8.1l-16.8-4.5c-0.5,1.8,0.4,3.7,2,4.6l9,4.5
		c2.4,1.1,3.8,3.6,3.5,6.2l-0.7,9.9C634.4,689.3,635.7,691.1,637.6,691.6z"/>
	<path class="st8" d="M632.8,674.8c-0.6-1.1-1.6-1.9-2.7-2.2c-0.3-0.1-0.6-0.1-0.9,0.1l-4.6,2.7c-1.8,1-2.4,3.4-1.3,5.1
		c1.1,1.7,3.3,2.1,5,1.1l4.5-2.6c0.3-0.1,0.5-0.4,0.5-0.7C633.6,677.1,633.5,675.9,632.8,674.8z"/>
	<path class="st8" d="M668.8,675.2l-16.8-4.5c-3.5-0.9-7.1,1.2-8.1,4.7l-4.5,16.8c1.8,0.5,3.7-0.4,4.6-2l4.5-9
		c1.1-2.4,3.6-3.8,6.2-3.5l9.9,0.7C666.6,678.4,668.3,677.1,668.8,675.2z"/>
	<path class="st8" d="M652,680c-1.1,0.6-1.9,1.6-2.2,2.7c-0.1,0.3-0.1,0.6,0.1,0.9l2.7,4.6c1,1.8,3.4,2.4,5.1,1.3
		c1.7-1.1,2.1-3.3,1.1-5l-2.6-4.5c-0.1-0.3-0.4-0.5-0.7-0.5C654.3,679.1,653.1,679.3,652,680z"/>
</g>
<g>
	<rect x="748.4" y="335.3" class="st1" width="218.6" height="218.6"/>
	<rect x="970.2" y="335.3" class="st1" width="218.6" height="218.6"/>
	<rect x="748.4" y="556.7" class="st2" width="218.6" height="218.6"/>
	<rect x="970.2" y="556.7" class="st0" width="218.6" height="218.6"/>
</g>
<g>
	<rect x="35.2" y="801.5" class="st1" width="286.5" height="286.5"/>
	<rect x="324.2" y="801.5" class="st1" width="286.5" height="286.5"/>
	<rect x="613.3" y="801.5" class="st2" width="286.5" height="286.5"/>
	<rect x="902.3" y="801.5" class="st0" width="286.5" height="286.5"/>
</g>
<g>
	<path class="st3" d="M203.6,862.1l-15.7,59c-3.3,12.3,4.1,25.1,16.4,28.3l58.9,15.7c1.6-6.4-1.3-13.1-7.2-16.1l-31.8-15.7
		c-8.4-3.9-13.3-12.6-12.4-21.8l2.5-34.9C214.6,870,210.2,863.9,203.6,862.1z"/>
	<path class="st3" d="M220.3,921.2c2.1,3.8,5.6,6.6,9.3,7.9c1,0.3,2.1,0.3,3.1-0.3l16.2-9.3c6.2-3.6,8.3-11.8,4.4-18
		c-3.8-5.9-11.6-7.5-17.5-3.9l-15.9,9.2c-1,0.5-1.6,1.5-1.8,2.6C217.5,913.2,218.2,917.5,220.3,921.2z"/>
	<path class="st4" d="M93.7,919.8l58.9,15.7c12.3,3.3,25.1-4.1,28.3-16.4l15.7-59c-6.4-1.6-13.1,1.3-16,7.2L165,899.1
		c-3.9,8.4-12.6,13.3-21.8,12.4l-34.9-2.5C101.8,908.8,95.5,913.2,93.7,919.8z"/>
	<path class="st4" d="M153.2,903.3c3.8-2.1,6.6-5.6,7.9-9.3c0.3-1,0.3-2.1-0.3-3.1l-9.3-16.2c-3.6-6.2-11.8-8.4-18-4.4
		c-5.9,3.8-7.5,11.6-3.9,17.5l9.2,15.9c0.5,1,1.5,1.6,2.6,1.8C145.2,906.3,149.5,905.6,153.2,903.3z"/>
	<path class="st5" d="M151.5,1029.2l15.7-59c3.3-12.3-4.1-25.1-16.4-28.3l-58.9-15.7c-1.6,6.4,1.3,13.1,7.2,16.1l31.8,15.7
		c8.4,3.9,13.3,12.6,12.4,21.8l-2.5,34.9C140.6,1021.2,145,1027.4,151.5,1029.2z"/>
	<path class="st5" d="M134.8,970c-2.1-3.8-5.6-6.6-9.3-7.9c-1-0.3-2.1-0.3-3.1,0.3l-16.2,9.3c-6.2,3.6-8.4,11.8-4.4,18
		c3.8,5.9,11.6,7.5,17.5,3.9l15.9-9.2c1-0.5,1.6-1.5,1.8-2.6C137.8,978.1,137.1,973.8,134.8,970z"/>
	<path class="st6" d="M261.4,971.5l-58.9-15.7c-12.3-3.3-25.1,4.1-28.3,16.4l-15.7,59c6.4,1.6,13.1-1.3,16-7.2l15.7-31.8
		c3.9-8.4,12.6-13.3,21.8-12.4l34.9,2.5C253.6,982.5,259.6,978.1,261.4,971.5z"/>
	<path class="st6" d="M202.3,988.2c-3.8,2.1-6.5,5.6-7.9,9.3c-0.3,1-0.3,2.1,0.3,3.1l9.3,16.2c3.6,6.2,11.8,8.4,18,4.4
		c5.9-3.8,7.5-11.6,3.9-17.5l-9.2-15.9c-0.5-1-1.5-1.6-2.6-1.8C210.5,985.3,206.2,985.9,202.3,988.2z"/>
</g>
<g>
	<path d="M493.2,862.1l-15.7,59c-3.3,12.3,4.1,25.1,16.4,28.3l58.9,15.7c1.6-6.4-1.3-13.1-7.2-16.1l-31.8-15.7
		c-8.4-3.9-13.3-12.6-12.4-21.8l2.5-34.9C504.2,870,499.7,863.9,493.2,862.1z"/>
	<path d="M509.9,921.2c2.1,3.8,5.6,6.6,9.3,7.9c1,0.3,2.1,0.3,3.1-0.3l16.2-9.3c6.2-3.6,8.3-11.8,4.4-18c-3.8-5.9-11.6-7.5-17.5-3.9
		l-15.9,9.2c-1,0.5-1.6,1.5-1.8,2.6C507.1,913.2,507.8,917.5,509.9,921.2z"/>
	<path d="M383.3,919.8l58.9,15.7c12.3,3.3,25.1-4.1,28.3-16.4l15.7-59c-6.4-1.6-13.1,1.3-16,7.2l-15.7,31.8
		c-3.9,8.4-12.6,13.3-21.8,12.4l-34.9-2.5C391.3,908.8,385.1,913.2,383.3,919.8z"/>
	<path d="M442.8,903.3c3.8-2.1,6.6-5.6,7.9-9.3c0.3-1,0.3-2.1-0.3-3.1l-9.3-16.2c-3.6-6.2-11.8-8.4-18-4.4
		c-5.9,3.8-7.5,11.6-3.9,17.5l9.2,15.9c0.5,1,1.5,1.6,2.6,1.8C434.8,906.3,439.1,905.6,442.8,903.3z"/>
	<path d="M441.1,1029.2l15.7-59c3.3-12.3-4.1-25.1-16.4-28.3l-58.9-15.7c-1.6,6.4,1.3,13.1,7.2,16.1l31.8,15.7
		c8.4,3.9,13.3,12.6,12.4,21.8l-2.5,34.9C430.2,1021.2,434.6,1027.4,441.1,1029.2z"/>
	<path d="M424.4,970c-2.1-3.8-5.6-6.6-9.3-7.9c-1-0.3-2.1-0.3-3.1,0.3l-16.2,9.3c-6.2,3.6-8.4,11.8-4.4,18
		c3.8,5.9,11.6,7.5,17.5,3.9l15.9-9.2c1-0.5,1.6-1.5,1.8-2.6C427.4,978.1,426.7,973.8,424.4,970z"/>
	<path d="M551,971.5L492,955.8c-12.3-3.3-25.1,4.1-28.3,16.4l-15.7,59c6.4,1.6,13.1-1.3,16-7.2l15.7-31.8
		c3.9-8.4,12.6-13.3,21.8-12.4l34.9,2.5C543.1,982.5,549.2,978.1,551,971.5z"/>
	<path d="M491.9,988.2c-3.8,2.1-6.5,5.6-7.9,9.3c-0.3,1-0.3,2.1,0.3,3.1l9.3,16.2c3.6,6.2,11.8,8.4,18,4.4
		c5.9-3.8,7.5-11.6,3.9-17.5l-9.2-15.9c-0.5-1-1.5-1.6-2.6-1.8C500.1,985.3,495.8,985.9,491.9,988.2z"/>
</g>
<g>
	<path class="st9" d="M782.8,862.1l-15.7,59c-3.3,12.3,4.1,25.1,16.4,28.3l58.9,15.7c1.6-6.4-1.3-13.1-7.2-16.1l-31.8-15.7
		c-8.4-3.9-13.3-12.6-12.4-21.8l2.5-34.9C793.7,870,789.3,863.9,782.8,862.1z"/>
	<path class="st9" d="M799.5,921.2c2.1,3.8,5.6,6.6,9.3,7.9c1,0.3,2.1,0.3,3.1-0.3l16.2-9.3c6.2-3.6,8.3-11.8,4.4-18
		c-3.8-5.9-11.6-7.5-17.5-3.9l-15.9,9.2c-1,0.5-1.6,1.5-1.8,2.6C796.7,913.2,797.4,917.5,799.5,921.2z"/>
	<path class="st9" d="M672.9,919.8l58.9,15.7c12.3,3.3,25.1-4.1,28.3-16.4l15.7-59c-6.4-1.6-13.1,1.3-16,7.2l-15.7,31.8
		c-3.9,8.4-12.6,13.3-21.8,12.4l-34.9-2.5C680.9,908.8,674.7,913.2,672.9,919.8z"/>
	<path class="st9" d="M732.4,903.3c3.8-2.1,6.6-5.6,7.9-9.3c0.3-1,0.3-2.1-0.3-3.1l-9.3-16.2c-3.6-6.2-11.8-8.4-18-4.4
		c-5.9,3.8-7.5,11.6-3.9,17.5l9.2,15.9c0.5,1,1.5,1.6,2.6,1.8C724.4,906.3,728.6,905.6,732.4,903.3z"/>
	<path class="st9" d="M730.7,1029.2l15.7-59c3.3-12.3-4.1-25.1-16.4-28.3l-58.9-15.7c-1.6,6.4,1.3,13.1,7.2,16.1l31.8,15.7
		c8.4,3.9,13.3,12.6,12.4,21.8l-2.5,34.9C719.7,1021.2,724.2,1027.4,730.7,1029.2z"/>
	<path class="st9" d="M714,970c-2.1-3.8-5.6-6.6-9.3-7.9c-1-0.3-2.1-0.3-3.1,0.3l-16.2,9.3c-6.2,3.6-8.4,11.8-4.4,18
		c3.8,5.9,11.6,7.5,17.5,3.9l15.9-9.2c1-0.5,1.6-1.5,1.8-2.6C717,978.1,716.3,973.8,714,970z"/>
	<path class="st9" d="M840.6,971.5l-58.9-15.7c-12.3-3.3-25.1,4.1-28.3,16.4l-15.7,59c6.4,1.6,13.1-1.3,16-7.2l15.7-31.8
		c3.9-8.4,12.6-13.3,21.8-12.4l34.9,2.5C832.7,982.5,838.8,978.1,840.6,971.5z"/>
	<path class="st9" d="M781.5,988.2c-3.8,2.1-6.5,5.6-7.9,9.3c-0.3,1-0.3,2.1,0.3,3.1l9.3,16.2c3.6,6.2,11.8,8.4,18,4.4
		c5.9-3.8,7.5-11.6,3.9-17.5l-9.2-15.9c-0.5-1-1.5-1.6-2.6-1.8C789.7,985.3,785.4,985.9,781.5,988.2z"/>
</g>
<g>
	<path class="st7" d="M1072.4,862.1l-15.7,59c-3.3,12.3,4.1,25.1,16.4,28.3l58.9,15.7c1.6-6.4-1.3-13.1-7.2-16.1l-31.8-15.7
		c-8.4-3.9-13.3-12.6-12.4-21.8l2.5-34.9C1083.3,870,1078.9,863.9,1072.4,862.1z"/>
	<path class="st7" d="M1089.1,921.2c2.1,3.8,5.6,6.6,9.3,7.9c1,0.3,2.1,0.3,3.1-0.3l16.2-9.3c6.2-3.6,8.3-11.8,4.4-18
		c-3.8-5.9-11.6-7.5-17.5-3.9l-15.9,9.2c-1,0.5-1.6,1.5-1.8,2.6C1086.3,913.2,1086.9,917.5,1089.1,921.2z"/>
	<path class="st7" d="M962.5,919.8l58.9,15.7c12.3,3.3,25.1-4.1,28.3-16.4l15.7-59c-6.4-1.6-13.1,1.3-16,7.2l-15.7,31.8
		c-3.9,8.4-12.6,13.3-21.8,12.4l-34.9-2.5C970.5,908.8,964.3,913.2,962.5,919.8z"/>
	<path class="st7" d="M1022,903.3c3.8-2.1,6.6-5.6,7.9-9.3c0.3-1,0.3-2.1-0.3-3.1l-9.3-16.2c-3.6-6.2-11.8-8.4-18-4.4
		c-5.9,3.8-7.5,11.6-3.9,17.5l9.2,15.9c0.5,1,1.5,1.6,2.6,1.8C1014,906.3,1018.2,905.6,1022,903.3z"/>
	<path class="st7" d="M1020.3,1029.2l15.7-59c3.3-12.3-4.1-25.1-16.4-28.3l-58.9-15.7c-1.6,6.4,1.3,13.1,7.2,16.1l31.8,15.7
		c8.4,3.9,13.3,12.6,12.4,21.8l-2.5,34.9C1009.3,1021.2,1013.7,1027.4,1020.3,1029.2z"/>
	<path class="st7" d="M1003.6,970c-2.1-3.8-5.6-6.6-9.3-7.9c-1-0.3-2.1-0.3-3.1,0.3l-16.2,9.3c-6.2,3.6-8.4,11.8-4.4,18
		c3.8,5.9,11.6,7.5,17.5,3.9l15.9-9.2c1-0.5,1.6-1.5,1.8-2.6C1006.5,978.1,1005.9,973.8,1003.6,970z"/>
	<path class="st7" d="M1130.2,971.5l-58.9-15.7c-12.3-3.3-25.1,4.1-28.3,16.4l-15.7,59c6.4,1.6,13.1-1.3,16-7.2l15.7-31.8
		c3.9-8.4,12.6-13.3,21.8-12.4l34.9,2.5C1122.3,982.5,1128.4,978.1,1130.2,971.5z"/>
	<path class="st7" d="M1071.1,988.2c-3.8,2.1-6.5,5.6-7.9,9.3c-0.3,1-0.3,2.1,0.3,3.1l9.3,16.2c3.6,6.2,11.8,8.4,18,4.4
		c5.9-3.8,7.5-11.6,3.9-17.5l-9.2-15.9c-0.5-1-1.5-1.6-2.6-1.8C1079.2,985.3,1075,985.9,1071.1,988.2z"/>
</g>
<g>
	<g>
		<path class="st7" d="M839.9,492.9c1.3,1.2,1.9,3,1.9,5.4v9.2c0,0.2-0.2,0.3-0.3,0.3h-3.2c-0.2,0-0.3-0.2-0.3-0.3v-8.7
			c0-1.5-0.3-2.6-1-3.3c-0.7-0.7-1.7-1.1-2.9-1.1c-1.4,0-2.6,0.4-3.4,1.3c-0.8,0.9-1.2,2.1-1.2,3.7v8c0,0.2-0.2,0.3-0.3,0.3h-3.2
			c-0.2,0-0.3-0.2-0.3-0.3v-15.1c0-0.9,1.1-1.4,1.8-0.8l1.9,1.8c0.6-0.8,1.5-1.3,2.4-1.7c1-0.4,2.1-0.6,3.3-0.6
			C837,491.1,838.6,491.7,839.9,492.9z"/>
		<path class="st7" d="M849.3,507c-1.4-0.7-2.4-1.7-3.2-3c-0.8-1.3-1.2-2.8-1.2-4.4c0-1.6,0.4-3.1,1.2-4.4c0.8-1.3,1.8-2.3,3.2-3
			c1.4-0.7,2.9-1.1,4.6-1.1c1.6,0,3.1,0.3,4.3,1c1.1,0.6,2,1.5,2.6,2.6c0.1,0.2,0,0.4-0.1,0.5l-2.4,1.4c-0.2,0.1-0.3,0.1-0.5-0.1
			c-0.5-0.6-1-1.1-1.6-1.5c-0.7-0.4-1.5-0.6-2.3-0.6c-1.5,0-2.7,0.5-3.6,1.4c-0.9,0.9-1.4,2.2-1.4,3.8c0,1.6,0.5,2.8,1.4,3.8
			c0.9,0.9,2.1,1.4,3.6,1.4c0.9,0,1.6-0.2,2.3-0.6c0.6-0.3,1.2-0.8,1.6-1.5c0.1-0.1,0.3-0.2,0.5-0.1l2.4,1.4
			c0.2,0.1,0.2,0.3,0.1,0.5c-0.6,1.1-1.5,2-2.7,2.6c-1.2,0.7-2.7,1-4.3,1C852.2,508.1,850.6,507.7,849.3,507z"/>
		<path class="st7" d="M867.1,507c-1.3-0.7-2.4-1.7-3.1-3c-0.8-1.3-1.1-2.8-1.1-4.4c0-1.6,0.4-3.1,1.1-4.4c0.8-1.3,1.8-2.3,3.1-3
			c1.3-0.7,2.8-1.1,4.5-1.1c1.7,0,3.2,0.4,4.6,1.1c1.3,0.7,2.4,1.7,3.1,3c0.8,1.3,1.1,2.7,1.1,4.4c0,1.6-0.4,3.1-1.1,4.4
			c-0.8,1.3-1.8,2.3-3.1,3c-1.3,0.7-2.9,1.1-4.6,1.1C870,508.1,868.5,507.7,867.1,507z M875.2,503.3c0.9-0.9,1.4-2.2,1.4-3.8
			c0-1.6-0.5-2.8-1.4-3.8c-0.9-0.9-2.1-1.4-3.5-1.4c-1.4,0-2.6,0.5-3.5,1.4c-0.9,0.9-1.4,2.2-1.4,3.8c0,1.6,0.5,2.8,1.4,3.8
			c0.9,0.9,2.1,1.4,3.5,1.4C873.1,504.7,874.3,504.3,875.2,503.3z"/>
		<path class="st7" d="M887.2,507.9c0.2,0,0.3-0.2,0.3-0.3v-9.4v-0.2c0-1.2,0.3-2,1-2.6s1.6-0.9,2.9-0.9c0,0,0.6,0,1.3,0.1
			c0.2,0,0.4-0.1,0.4-0.3v-2.5c0-0.2-0.1-0.3-0.3-0.3c-0.6-0.1-1.4-0.2-2.1-0.2c-2.4,0-4,0.6-5.3,1.7c-1.3,1.2-1.9,2.9-1.9,5.3v9.4
			c0,0.2,0.2,0.3,0.3,0.3H887.2z"/>
		<path class="st7" d="M821.3,495.2c-0.7-1.3-1.7-2.3-3-3c-1.3-0.7-2.7-1.1-4.3-1.1c-1.6,0-3.1,0.4-4.4,1.1c-1.3,0.7-2.3,1.7-3.1,3
			c-0.7,1.3-1.1,2.7-1.1,4.4c0,1.6,0.4,3.1,1.1,4.4c0.8,1.3,1.8,2.3,3.2,3c1.4,0.7,3,1.1,4.8,1.1c1.4,0,2.7-0.2,3.8-0.7
			c1-0.4,1.9-1,2.6-1.8c0.1-0.1,0.1-0.3,0-0.5l-1.6-1.9c-0.1-0.1-0.3-0.2-0.5,0c-1.1,1-2.6,1.6-4.2,1.6c-1.4,0-2.6-0.3-3.6-1.1
			c-1-0.7-1.6-1.7-1.8-2.9h12.5c0.3,0,0.5-0.2,0.5-0.5c0-0.3,0-0.5,0-0.6C822.3,497.9,822,496.5,821.3,495.2z M810.8,495.3
			c0.9-0.7,1.9-1.1,3.1-1.1c1.3,0,2.3,0.4,3.2,1.1c0.8,0.6,1.2,1.5,1.5,2.5h-9.2C809.5,496.8,810,495.9,810.8,495.3z"/>
		<path class="st7" d="M906.1,507.9h2.9c0.2,0,0.3-0.2,0.3-0.3v-9.4c0-2.4-0.6-4.1-1.9-5.3c-1.3-1.2-3.5-1.8-6-1.8
			c-1.6,0-2.6,0.1-3.6,0.3c-0.2,0-0.3,0.2-0.3,0.3v2.5c0,0.2,0.2,0.4,0.4,0.3c1.5-0.2,4.9-0.6,6.5,0.8c0.7,0.6,1,1.5,1,2.7v0.2h-4.3
			c-2.4,0-4.1,0.5-5.2,1.3c-1.1,0.9-1.7,2.1-1.7,3.6c0,0.9,0.2,1.8,0.8,2.6c0.5,0.8,1.2,1.3,2.1,1.8c0.9,0.4,2,0.6,3.3,0.6
			c1.6,0,3.8-0.6,5.3-2.1v1.5C905.8,507.7,905.9,507.9,906.1,507.9z M905.5,503.3c-0.7,1.1-2.7,1.9-4.2,1.9c-1,0-1.8-0.2-2.3-0.6
			c-0.6-0.4-0.8-1-0.8-1.7c0-1.5,1.1-2.2,3.4-2.2h4V503.3z"/>
	</g>
	<g>
		<path class="st3" d="M874.7,382.6l-9.2,34.6c-1.9,7.2,2.4,14.7,9.6,16.6l34.6,9.2c1-3.8-0.8-7.7-4.2-9.4l-18.6-9.2
			c-4.9-2.3-7.8-7.4-7.3-12.8l1.4-20.5C881.1,387.2,878.5,383.6,874.7,382.6z"/>
		<path class="st3" d="M884.5,417.3c1.2,2.2,3.3,3.8,5.5,4.6c0.6,0.2,1.3,0.2,1.8-0.2l9.5-5.5c3.7-2.1,4.9-6.9,2.6-10.6
			c-2.2-3.5-6.8-4.4-10.3-2.3l-9.3,5.4c-0.6,0.3-1,0.9-1.1,1.5C882.9,412.6,883.2,415.1,884.5,417.3z"/>
		<path class="st4" d="M810.2,416.4l34.6,9.2c7.2,1.9,14.7-2.4,16.6-9.6l9.2-34.6c-3.7-1-7.7,0.8-9.4,4.2l-9.2,18.7
			c-2.3,4.9-7.4,7.8-12.8,7.3l-20.5-1.4C814.9,410,811.2,412.6,810.2,416.4z"/>
		<path class="st4" d="M845.1,406.8c2.2-1.3,3.8-3.3,4.6-5.5c0.2-0.6,0.2-1.3-0.2-1.8l-5.5-9.5c-2.1-3.7-6.9-4.9-10.6-2.6
			c-3.5,2.2-4.4,6.8-2.3,10.3l5.4,9.3c0.3,0.6,0.9,1,1.5,1.1C840.4,408.5,842.9,408.1,845.1,406.8z"/>
		<path class="st5" d="M844.1,480.7l9.2-34.6c1.9-7.2-2.4-14.7-9.6-16.6l-34.6-9.2c-1,3.8,0.8,7.7,4.2,9.4l18.6,9.2
			c4.9,2.3,7.8,7.4,7.3,12.8l-1.4,20.5C837.7,475.9,840.3,479.6,844.1,480.7z"/>
		<path class="st5" d="M834.3,445.9c-1.2-2.2-3.3-3.8-5.5-4.6c-0.6-0.2-1.2-0.2-1.8,0.2l-9.5,5.5c-3.7,2.1-4.9,6.9-2.6,10.6
			c2.2,3.5,6.8,4.4,10.3,2.3l9.3-5.4c0.6-0.3,1-0.9,1.1-1.5C836,450.6,835.7,448.1,834.3,445.9z"/>
		<path class="st6" d="M908.6,446.8l-34.6-9.2c-7.2-1.9-14.7,2.4-16.6,9.6l-9.2,34.6c3.7,1,7.7-0.8,9.4-4.2l9.2-18.7
			c2.3-4.9,7.4-7.8,12.8-7.3l20.5,1.4C904,453.2,907.6,450.6,908.6,446.8z"/>
		<path class="st6" d="M873.9,456.6c-2.2,1.3-3.8,3.3-4.6,5.5c-0.2,0.6-0.2,1.3,0.2,1.8l5.5,9.5c2.1,3.7,6.9,4.9,10.6,2.6
			c3.5-2.2,4.4-6.8,2.3-10.3l-5.4-9.3c-0.3-0.6-0.9-1-1.5-1.1C878.7,454.9,876.2,455.3,873.9,456.6z"/>
	</g>
</g>
<g>
	<g>
		<path class="st9" d="M839.9,714.2c1.3,1.2,1.9,3,1.9,5.4v9.2c0,0.2-0.2,0.3-0.3,0.3h-3.2c-0.2,0-0.3-0.2-0.3-0.3v-8.7
			c0-1.5-0.3-2.6-1-3.3c-0.7-0.7-1.7-1.1-2.9-1.1c-1.4,0-2.6,0.4-3.4,1.3c-0.8,0.9-1.2,2.1-1.2,3.7v8c0,0.2-0.2,0.3-0.3,0.3h-3.2
			c-0.2,0-0.3-0.2-0.3-0.3v-15.1c0-0.9,1.1-1.4,1.8-0.8l1.9,1.8c0.6-0.8,1.5-1.3,2.4-1.7c1-0.4,2.1-0.6,3.3-0.6
			C837,712.4,838.6,713,839.9,714.2z"/>
		<path class="st9" d="M849.3,728.3c-1.4-0.7-2.4-1.7-3.2-3c-0.8-1.3-1.2-2.8-1.2-4.4c0-1.6,0.4-3.1,1.2-4.4c0.8-1.3,1.8-2.3,3.2-3
			c1.4-0.7,2.9-1.1,4.6-1.1c1.6,0,3.1,0.3,4.3,1c1.1,0.6,2,1.5,2.6,2.6c0.1,0.2,0,0.4-0.1,0.5l-2.4,1.4c-0.2,0.1-0.3,0.1-0.5-0.1
			c-0.5-0.6-1-1.1-1.6-1.5c-0.7-0.4-1.5-0.6-2.3-0.6c-1.5,0-2.7,0.5-3.6,1.4c-0.9,0.9-1.4,2.2-1.4,3.8c0,1.6,0.5,2.8,1.4,3.8
			c0.9,0.9,2.1,1.4,3.6,1.4c0.9,0,1.6-0.2,2.3-0.6c0.6-0.3,1.2-0.8,1.6-1.5c0.1-0.1,0.3-0.2,0.5-0.1l2.4,1.4
			c0.2,0.1,0.2,0.3,0.1,0.5c-0.6,1.1-1.5,2-2.7,2.6c-1.2,0.7-2.7,1-4.3,1C852.2,729.4,850.6,729.1,849.3,728.3z"/>
		<path class="st9" d="M867.1,728.3c-1.3-0.7-2.4-1.7-3.1-3c-0.8-1.3-1.1-2.8-1.1-4.4c0-1.6,0.4-3.1,1.1-4.4c0.8-1.3,1.8-2.3,3.1-3
			c1.3-0.7,2.8-1.1,4.5-1.1c1.7,0,3.2,0.4,4.6,1.1c1.3,0.7,2.4,1.7,3.1,3c0.8,1.3,1.1,2.7,1.1,4.4c0,1.6-0.4,3.1-1.1,4.4
			c-0.8,1.3-1.8,2.3-3.1,3c-1.3,0.7-2.9,1.1-4.6,1.1C870,729.4,868.5,729.1,867.1,728.3z M875.2,724.7c0.9-0.9,1.4-2.2,1.4-3.8
			c0-1.6-0.5-2.8-1.4-3.8c-0.9-0.9-2.1-1.4-3.5-1.4c-1.4,0-2.6,0.5-3.5,1.4c-0.9,0.9-1.4,2.2-1.4,3.8c0,1.6,0.5,2.8,1.4,3.8
			c0.9,0.9,2.1,1.4,3.5,1.4C873.1,726.1,874.3,725.6,875.2,724.7z"/>
		<path class="st9" d="M887.2,729.2c0.2,0,0.3-0.2,0.3-0.3v-9.4v-0.2c0-1.2,0.3-2,1-2.6c0.7-0.6,1.6-0.9,2.9-0.9c0,0,0.6,0,1.3,0.1
			c0.2,0,0.4-0.1,0.4-0.3V713c0-0.2-0.1-0.3-0.3-0.3c-0.6-0.1-1.4-0.2-2.1-0.2c-2.4,0-4,0.6-5.3,1.7c-1.3,1.2-1.9,2.9-1.9,5.3v9.4
			c0,0.2,0.2,0.3,0.3,0.3H887.2z"/>
		<path class="st9" d="M821.3,716.5c-0.7-1.3-1.7-2.3-3-3c-1.3-0.7-2.7-1.1-4.3-1.1c-1.6,0-3.1,0.4-4.4,1.1c-1.3,0.7-2.3,1.7-3.1,3
			c-0.7,1.3-1.1,2.7-1.1,4.4c0,1.6,0.4,3.1,1.1,4.4c0.8,1.3,1.8,2.3,3.2,3c1.4,0.7,3,1.1,4.8,1.1c1.4,0,2.7-0.2,3.8-0.7
			c1-0.4,1.9-1,2.6-1.8c0.1-0.1,0.1-0.3,0-0.5l-1.6-1.9c-0.1-0.1-0.3-0.2-0.5,0c-1.1,1-2.6,1.6-4.2,1.6c-1.4,0-2.6-0.3-3.6-1.1
			c-1-0.7-1.6-1.7-1.8-2.9h12.5c0.3,0,0.5-0.2,0.5-0.5c0-0.3,0-0.5,0-0.6C822.3,719.3,822,717.8,821.3,716.5z M810.8,716.6
			c0.9-0.7,1.9-1.1,3.1-1.1c1.3,0,2.3,0.4,3.2,1.1c0.8,0.6,1.2,1.5,1.5,2.5h-9.2C809.5,718.1,810,717.3,810.8,716.6z"/>
		<path class="st9" d="M906.1,729.2h2.9c0.2,0,0.3-0.2,0.3-0.3v-9.4c0-2.4-0.6-4.1-1.9-5.3c-1.3-1.2-3.5-1.8-6-1.8
			c-1.6,0-2.6,0.1-3.6,0.3c-0.2,0-0.3,0.2-0.3,0.3v2.5c0,0.2,0.2,0.4,0.4,0.3c1.5-0.2,4.9-0.6,6.5,0.8c0.7,0.6,1,1.5,1,2.7v0.2h-4.3
			c-2.4,0-4.1,0.5-5.2,1.3c-1.1,0.9-1.7,2.1-1.7,3.6c0,0.9,0.2,1.8,0.8,2.6c0.5,0.8,1.2,1.3,2.1,1.8c0.9,0.4,2,0.6,3.3,0.6
			c1.6,0,3.8-0.6,5.3-2.1v1.5C905.8,729,905.9,729.2,906.1,729.2z M905.5,724.7c-0.7,1.1-2.7,1.9-4.2,1.9c-1,0-1.8-0.2-2.3-0.6
			c-0.6-0.4-0.8-1-0.8-1.7c0-1.5,1.1-2.2,3.4-2.2h4V724.7z"/>
	</g>
	<g>
		<path class="st9" d="M874.7,603.9l-9.2,34.6c-1.9,7.2,2.4,14.7,9.6,16.6l34.6,9.2c1-3.8-0.8-7.7-4.2-9.4l-18.6-9.2
			c-4.9-2.3-7.8-7.4-7.3-12.8l1.4-20.5C881.1,608.5,878.5,604.9,874.7,603.9z"/>
		<path class="st9" d="M884.5,638.6c1.2,2.2,3.3,3.8,5.5,4.6c0.6,0.2,1.3,0.2,1.8-0.2l9.5-5.5c3.7-2.1,4.9-6.9,2.6-10.6
			c-2.2-3.5-6.8-4.4-10.3-2.3l-9.3,5.4c-0.6,0.3-1,0.9-1.1,1.5C882.9,633.9,883.2,636.4,884.5,638.6z"/>
		<path class="st9" d="M810.2,637.7l34.6,9.2c7.2,1.9,14.7-2.4,16.6-9.6l9.2-34.6c-3.7-1-7.7,0.8-9.4,4.2l-9.2,18.7
			c-2.3,4.9-7.4,7.8-12.8,7.3l-20.5-1.4C814.9,631.3,811.2,633.9,810.2,637.7z"/>
		<path class="st9" d="M845.1,628.1c2.2-1.3,3.8-3.3,4.6-5.5c0.2-0.6,0.2-1.3-0.2-1.8l-5.5-9.5c-2.1-3.7-6.9-4.9-10.6-2.6
			c-3.5,2.2-4.4,6.8-2.3,10.3l5.4,9.3c0.3,0.6,0.9,1,1.5,1.1C840.4,629.8,842.9,629.4,845.1,628.1z"/>
		<path class="st9" d="M844.1,702l9.2-34.6c1.9-7.2-2.4-14.7-9.6-16.6l-34.6-9.2c-1,3.8,0.8,7.7,4.2,9.4l18.6,9.2
			c4.9,2.3,7.8,7.4,7.3,12.8l-1.4,20.5C837.7,697.3,840.3,700.9,844.1,702z"/>
		<path class="st9" d="M834.3,667.3c-1.2-2.2-3.3-3.8-5.5-4.6c-0.6-0.2-1.2-0.2-1.8,0.2l-9.5,5.5c-3.7,2.1-4.9,6.9-2.6,10.6
			c2.2,3.5,6.8,4.4,10.3,2.3l9.3-5.4c0.6-0.3,1-0.9,1.1-1.5C836,672,835.7,669.5,834.3,667.3z"/>
		<path class="st9" d="M908.6,668.1l-34.6-9.2c-7.2-1.9-14.7,2.4-16.6,9.6l-9.2,34.6c3.7,1,7.7-0.8,9.4-4.2l9.2-18.7
			c2.3-4.9,7.4-7.8,12.8-7.3l20.5,1.4C904,674.6,907.6,672,908.6,668.1z"/>
		<path class="st9" d="M873.9,677.9c-2.2,1.3-3.8,3.3-4.6,5.5c-0.2,0.6-0.2,1.3,0.2,1.8l5.5,9.5c2.1,3.7,6.9,4.9,10.6,2.6
			c3.5-2.2,4.4-6.8,2.3-10.3l-5.4-9.3c-0.3-0.6-0.9-1-1.5-1.1C878.7,676.2,876.2,676.6,873.9,677.9z"/>
	</g>
</g>
<g>
	<g>
		<path d="M1061.8,492.9c1.3,1.2,1.9,3,1.9,5.4v9.2c0,0.2-0.2,0.3-0.3,0.3h-3.2c-0.2,0-0.3-0.2-0.3-0.3v-8.7c0-1.5-0.3-2.6-1-3.3
			c-0.7-0.7-1.7-1.1-2.9-1.1c-1.4,0-2.6,0.4-3.4,1.3c-0.8,0.9-1.2,2.1-1.2,3.7v8c0,0.2-0.2,0.3-0.3,0.3h-3.2c-0.2,0-0.3-0.2-0.3-0.3
			v-15.1c0-0.9,1.1-1.4,1.8-0.8l1.9,1.8c0.6-0.8,1.5-1.3,2.4-1.7c1-0.4,2.1-0.6,3.3-0.6C1058.8,491.1,1060.5,491.7,1061.8,492.9z"/>
		<path d="M1071.1,507c-1.4-0.7-2.4-1.7-3.2-3c-0.8-1.3-1.2-2.8-1.2-4.4c0-1.6,0.4-3.1,1.2-4.4c0.8-1.3,1.8-2.3,3.2-3
			c1.4-0.7,2.9-1.1,4.6-1.1c1.6,0,3.1,0.3,4.3,1c1.1,0.6,2,1.5,2.6,2.6c0.1,0.2,0,0.4-0.1,0.5l-2.4,1.4c-0.2,0.1-0.3,0.1-0.5-0.1
			c-0.5-0.6-1-1.1-1.6-1.5c-0.7-0.4-1.5-0.6-2.3-0.6c-1.5,0-2.7,0.5-3.6,1.4c-0.9,0.9-1.4,2.2-1.4,3.8c0,1.6,0.5,2.8,1.4,3.8
			c0.9,0.9,2.1,1.4,3.6,1.4c0.9,0,1.6-0.2,2.3-0.6c0.6-0.3,1.2-0.8,1.6-1.5c0.1-0.1,0.3-0.2,0.5-0.1l2.4,1.4
			c0.2,0.1,0.2,0.3,0.1,0.5c-0.6,1.1-1.5,2-2.7,2.6c-1.2,0.7-2.7,1-4.3,1C1074,508.1,1072.5,507.7,1071.1,507z"/>
		<path d="M1089,507c-1.3-0.7-2.4-1.7-3.1-3c-0.8-1.3-1.1-2.8-1.1-4.4c0-1.6,0.4-3.1,1.1-4.4c0.8-1.3,1.8-2.3,3.1-3
			c1.3-0.7,2.8-1.1,4.5-1.1c1.7,0,3.2,0.4,4.6,1.1c1.3,0.7,2.4,1.7,3.1,3c0.8,1.3,1.1,2.7,1.1,4.4c0,1.6-0.4,3.1-1.1,4.4
			c-0.8,1.3-1.8,2.3-3.1,3c-1.3,0.7-2.9,1.1-4.6,1.1C1091.8,508.1,1090.3,507.7,1089,507z M1097,503.3c0.9-0.9,1.4-2.2,1.4-3.8
			c0-1.6-0.5-2.8-1.4-3.8c-0.9-0.9-2.1-1.4-3.5-1.4c-1.4,0-2.6,0.5-3.5,1.4c-0.9,0.9-1.4,2.2-1.4,3.8c0,1.6,0.5,2.8,1.4,3.8
			c0.9,0.9,2.1,1.4,3.5,1.4C1094.9,504.7,1096.1,504.3,1097,503.3z"/>
		<path d="M1109,507.9c0.2,0,0.3-0.2,0.3-0.3v-9.4v-0.2c0-1.2,0.3-2,1-2.6c0.7-0.6,1.6-0.9,2.9-0.9c0,0,0.6,0,1.3,0.1
			c0.2,0,0.4-0.1,0.4-0.3v-2.5c0-0.2-0.1-0.3-0.3-0.3c-0.6-0.1-1.4-0.2-2.1-0.2c-2.4,0-4,0.6-5.3,1.7c-1.3,1.2-1.9,2.9-1.9,5.3v9.4
			c0,0.2,0.2,0.3,0.3,0.3H1109z"/>
		<path d="M1043.1,495.2c-0.7-1.3-1.7-2.3-3-3c-1.3-0.7-2.7-1.1-4.3-1.1c-1.6,0-3.1,0.4-4.4,1.1c-1.3,0.7-2.3,1.7-3.1,3
			c-0.7,1.3-1.1,2.7-1.1,4.4c0,1.6,0.4,3.1,1.1,4.4c0.8,1.3,1.8,2.3,3.2,3s3,1.1,4.8,1.1c1.4,0,2.7-0.2,3.8-0.7c1-0.4,1.9-1,2.6-1.8
			c0.1-0.1,0.1-0.3,0-0.5l-1.6-1.9c-0.1-0.1-0.3-0.2-0.5,0c-1.1,1-2.6,1.6-4.2,1.6c-1.4,0-2.6-0.3-3.6-1.1c-1-0.7-1.6-1.7-1.8-2.9
			h12.5c0.3,0,0.5-0.2,0.5-0.5c0-0.3,0-0.5,0-0.6C1044.2,497.9,1043.8,496.5,1043.1,495.2z M1032.6,495.3c0.9-0.7,1.9-1.1,3.1-1.1
			c1.3,0,2.3,0.4,3.2,1.1c0.8,0.6,1.2,1.5,1.5,2.5h-9.2C1031.4,496.8,1031.9,495.9,1032.6,495.3z"/>
		<path d="M1128,507.9h2.9c0.2,0,0.3-0.2,0.3-0.3v-9.4c0-2.4-0.6-4.1-1.9-5.3c-1.3-1.2-3.5-1.8-6-1.8c-1.6,0-2.6,0.1-3.6,0.3
			c-0.2,0-0.3,0.2-0.3,0.3v2.5c0,0.2,0.2,0.4,0.4,0.3c1.5-0.2,4.9-0.6,6.5,0.8c0.7,0.6,1,1.5,1,2.7v0.2h-4.3c-2.4,0-4.1,0.5-5.2,1.3
			c-1.1,0.9-1.7,2.1-1.7,3.6c0,0.9,0.2,1.8,0.8,2.6c0.5,0.8,1.2,1.3,2.1,1.8c0.9,0.4,2,0.6,3.3,0.6c1.6,0,3.8-0.6,5.3-2.1v1.5
			C1127.6,507.7,1127.8,507.9,1128,507.9z M1127.3,503.3c-0.7,1.1-2.7,1.9-4.2,1.9c-1,0-1.8-0.2-2.3-0.6c-0.6-0.4-0.8-1-0.8-1.7
			c0-1.5,1.1-2.2,3.4-2.2h4V503.3z"/>
	</g>
	<g>
		<path d="M1096.5,382.6l-9.2,34.6c-1.9,7.2,2.4,14.7,9.6,16.6l34.6,9.2c1-3.8-0.8-7.7-4.2-9.4l-18.6-9.2c-4.9-2.3-7.8-7.4-7.3-12.8
			l1.4-20.5C1103,387.2,1100.4,383.6,1096.5,382.6z"/>
		<path d="M1106.4,417.3c1.2,2.2,3.3,3.8,5.5,4.6c0.6,0.2,1.3,0.2,1.8-0.2l9.5-5.5c3.7-2.1,4.9-6.9,2.6-10.6
			c-2.2-3.5-6.8-4.4-10.3-2.3l-9.3,5.4c-0.6,0.3-1,0.9-1.1,1.5C1104.7,412.6,1105.1,415.1,1106.4,417.3z"/>
		<path d="M1032,416.4l34.6,9.2c7.2,1.9,14.7-2.4,16.6-9.6l9.2-34.6c-3.7-1-7.7,0.8-9.4,4.2l-9.2,18.7c-2.3,4.9-7.4,7.8-12.8,7.3
			l-20.5-1.4C1036.8,410,1033.1,412.6,1032,416.4z"/>
		<path d="M1067,406.8c2.2-1.3,3.8-3.3,4.6-5.5c0.2-0.6,0.2-1.3-0.2-1.8l-5.5-9.5c-2.1-3.7-6.9-4.9-10.6-2.6
			c-3.5,2.2-4.4,6.8-2.3,10.3l5.4,9.3c0.3,0.6,0.9,1,1.5,1.1C1062.3,408.5,1064.8,408.1,1067,406.8z"/>
		<path d="M1066,480.7l9.2-34.6c1.9-7.2-2.4-14.7-9.6-16.6l-34.6-9.2c-1,3.8,0.8,7.7,4.2,9.4l18.6,9.2c4.9,2.3,7.8,7.4,7.3,12.8
			l-1.4,20.5C1059.5,475.9,1062.1,479.6,1066,480.7z"/>
		<path d="M1056.2,445.9c-1.2-2.2-3.3-3.8-5.5-4.6c-0.6-0.2-1.2-0.2-1.8,0.2l-9.5,5.5c-3.7,2.1-4.9,6.9-2.6,10.6
			c2.2,3.5,6.8,4.4,10.3,2.3l9.3-5.4c0.6-0.3,1-0.9,1.1-1.5C1057.9,450.6,1057.5,448.1,1056.2,445.9z"/>
		<path d="M1130.5,446.8l-34.6-9.2c-7.2-1.9-14.7,2.4-16.6,9.6l-9.2,34.6c3.7,1,7.7-0.8,9.4-4.2l9.2-18.7c2.3-4.9,7.4-7.8,12.8-7.3
			l20.5,1.4C1125.9,453.2,1129.4,450.6,1130.5,446.8z"/>
		<path d="M1095.8,456.6c-2.2,1.3-3.8,3.3-4.6,5.5c-0.2,0.6-0.2,1.3,0.2,1.8l5.5,9.5c2.1,3.7,6.9,4.9,10.6,2.6
			c3.5-2.2,4.4-6.8,2.3-10.3l-5.4-9.3c-0.3-0.6-0.9-1-1.5-1.1C1100.6,454.9,1098.1,455.3,1095.8,456.6z"/>
	</g>
</g>
<g>
	<g>
		<path class="st7" d="M1061.8,714.2c1.3,1.2,1.9,3,1.9,5.4v9.2c0,0.2-0.2,0.3-0.3,0.3h-3.2c-0.2,0-0.3-0.2-0.3-0.3v-8.7
			c0-1.5-0.3-2.6-1-3.3c-0.7-0.7-1.7-1.1-2.9-1.1c-1.4,0-2.6,0.4-3.4,1.3c-0.8,0.9-1.2,2.1-1.2,3.7v8c0,0.2-0.2,0.3-0.3,0.3h-3.2
			c-0.2,0-0.3-0.2-0.3-0.3v-15.1c0-0.9,1.1-1.4,1.8-0.8l1.9,1.8c0.6-0.8,1.5-1.3,2.4-1.7c1-0.4,2.1-0.6,3.3-0.6
			C1058.8,712.4,1060.5,713,1061.8,714.2z"/>
		<path class="st7" d="M1071.1,728.3c-1.4-0.7-2.4-1.7-3.2-3c-0.8-1.3-1.2-2.8-1.2-4.4c0-1.6,0.4-3.1,1.2-4.4c0.8-1.3,1.8-2.3,3.2-3
			c1.4-0.7,2.9-1.1,4.6-1.1c1.6,0,3.1,0.3,4.3,1c1.1,0.6,2,1.5,2.6,2.6c0.1,0.2,0,0.4-0.1,0.5l-2.4,1.4c-0.2,0.1-0.3,0.1-0.5-0.1
			c-0.5-0.6-1-1.1-1.6-1.5c-0.7-0.4-1.5-0.6-2.3-0.6c-1.5,0-2.7,0.5-3.6,1.4c-0.9,0.9-1.4,2.2-1.4,3.8c0,1.6,0.5,2.8,1.4,3.8
			c0.9,0.9,2.1,1.4,3.6,1.4c0.9,0,1.6-0.2,2.3-0.6c0.6-0.3,1.2-0.8,1.6-1.5c0.1-0.1,0.3-0.2,0.5-0.1l2.4,1.4
			c0.2,0.1,0.2,0.3,0.1,0.5c-0.6,1.1-1.5,2-2.7,2.6c-1.2,0.7-2.7,1-4.3,1C1074,729.4,1072.5,729.1,1071.1,728.3z"/>
		<path class="st7" d="M1089,728.3c-1.3-0.7-2.4-1.7-3.1-3c-0.8-1.3-1.1-2.8-1.1-4.4c0-1.6,0.4-3.1,1.1-4.4c0.8-1.3,1.8-2.3,3.1-3
			c1.3-0.7,2.8-1.1,4.5-1.1c1.7,0,3.2,0.4,4.6,1.1c1.3,0.7,2.4,1.7,3.1,3c0.8,1.3,1.1,2.7,1.1,4.4c0,1.6-0.4,3.1-1.1,4.4
			c-0.8,1.3-1.8,2.3-3.1,3c-1.3,0.7-2.9,1.1-4.6,1.1C1091.8,729.4,1090.3,729.1,1089,728.3z M1097,724.7c0.9-0.9,1.4-2.2,1.4-3.8
			c0-1.6-0.5-2.8-1.4-3.8c-0.9-0.9-2.1-1.4-3.5-1.4c-1.4,0-2.6,0.5-3.5,1.4c-0.9,0.9-1.4,2.2-1.4,3.8c0,1.6,0.5,2.8,1.4,3.8
			c0.9,0.9,2.1,1.4,3.5,1.4C1094.9,726.1,1096.1,725.6,1097,724.7z"/>
		<path class="st7" d="M1109,729.2c0.2,0,0.3-0.2,0.3-0.3v-9.4v-0.2c0-1.2,0.3-2,1-2.6c0.7-0.6,1.6-0.9,2.9-0.9c0,0,0.6,0,1.3,0.1
			c0.2,0,0.4-0.1,0.4-0.3V713c0-0.2-0.1-0.3-0.3-0.3c-0.6-0.1-1.4-0.2-2.1-0.2c-2.4,0-4,0.6-5.3,1.7c-1.3,1.2-1.9,2.9-1.9,5.3v9.4
			c0,0.2,0.2,0.3,0.3,0.3H1109z"/>
		<path class="st7" d="M1043.1,716.5c-0.7-1.3-1.7-2.3-3-3c-1.3-0.7-2.7-1.1-4.3-1.1c-1.6,0-3.1,0.4-4.4,1.1c-1.3,0.7-2.3,1.7-3.1,3
			c-0.7,1.3-1.1,2.7-1.1,4.4c0,1.6,0.4,3.1,1.1,4.4c0.8,1.3,1.8,2.3,3.2,3s3,1.1,4.8,1.1c1.4,0,2.7-0.2,3.8-0.7c1-0.4,1.9-1,2.6-1.8
			c0.1-0.1,0.1-0.3,0-0.5l-1.6-1.9c-0.1-0.1-0.3-0.2-0.5,0c-1.1,1-2.6,1.6-4.2,1.6c-1.4,0-2.6-0.3-3.6-1.1c-1-0.7-1.6-1.7-1.8-2.9
			h12.5c0.3,0,0.5-0.2,0.5-0.5c0-0.3,0-0.5,0-0.6C1044.2,719.3,1043.8,717.8,1043.1,716.5z M1032.6,716.6c0.9-0.7,1.9-1.1,3.1-1.1
			c1.3,0,2.3,0.4,3.2,1.1c0.8,0.6,1.2,1.5,1.5,2.5h-9.2C1031.4,718.1,1031.9,717.3,1032.6,716.6z"/>
		<path class="st7" d="M1128,729.2h2.9c0.2,0,0.3-0.2,0.3-0.3v-9.4c0-2.4-0.6-4.1-1.9-5.3c-1.3-1.2-3.5-1.8-6-1.8
			c-1.6,0-2.6,0.1-3.6,0.3c-0.2,0-0.3,0.2-0.3,0.3v2.5c0,0.2,0.2,0.4,0.4,0.3c1.5-0.2,4.9-0.6,6.5,0.8c0.7,0.6,1,1.5,1,2.7v0.2h-4.3
			c-2.4,0-4.1,0.5-5.2,1.3c-1.1,0.9-1.7,2.1-1.7,3.6c0,0.9,0.2,1.8,0.8,2.6c0.5,0.8,1.2,1.3,2.1,1.8c0.9,0.4,2,0.6,3.3,0.6
			c1.6,0,3.8-0.6,5.3-2.1v1.5C1127.6,729,1127.8,729.2,1128,729.2z M1127.3,724.7c-0.7,1.1-2.7,1.9-4.2,1.9c-1,0-1.8-0.2-2.3-0.6
			c-0.6-0.4-0.8-1-0.8-1.7c0-1.5,1.1-2.2,3.4-2.2h4V724.7z"/>
	</g>
	<g>
		<path class="st7" d="M1096.5,603.9l-9.2,34.6c-1.9,7.2,2.4,14.7,9.6,16.6l34.6,9.2c1-3.8-0.8-7.7-4.2-9.4l-18.6-9.2
			c-4.9-2.3-7.8-7.4-7.3-12.8l1.4-20.5C1103,608.5,1100.4,604.9,1096.5,603.9z"/>
		<path class="st7" d="M1106.4,638.6c1.2,2.2,3.3,3.8,5.5,4.6c0.6,0.2,1.3,0.2,1.8-0.2l9.5-5.5c3.7-2.1,4.9-6.9,2.6-10.6
			c-2.2-3.5-6.8-4.4-10.3-2.3l-9.3,5.4c-0.6,0.3-1,0.9-1.1,1.5C1104.7,633.9,1105.1,636.4,1106.4,638.6z"/>
		<path class="st7" d="M1032,637.7l34.6,9.2c7.2,1.9,14.7-2.4,16.6-9.6l9.2-34.6c-3.7-1-7.7,0.8-9.4,4.2l-9.2,18.7
			c-2.3,4.9-7.4,7.8-12.8,7.3l-20.5-1.4C1036.8,631.3,1033.1,633.9,1032,637.7z"/>
		<path class="st7" d="M1067,628.1c2.2-1.3,3.8-3.3,4.6-5.5c0.2-0.6,0.2-1.3-0.2-1.8l-5.5-9.5c-2.1-3.7-6.9-4.9-10.6-2.6
			c-3.5,2.2-4.4,6.8-2.3,10.3l5.4,9.3c0.3,0.6,0.9,1,1.5,1.1C1062.3,629.8,1064.8,629.4,1067,628.1z"/>
		<path class="st7" d="M1066,702l9.2-34.6c1.9-7.2-2.4-14.7-9.6-16.6l-34.6-9.2c-1,3.8,0.8,7.7,4.2,9.4l18.6,9.2
			c4.9,2.3,7.8,7.4,7.3,12.8l-1.4,20.5C1059.5,697.3,1062.1,700.9,1066,702z"/>
		<path class="st7" d="M1056.2,667.3c-1.2-2.2-3.3-3.8-5.5-4.6c-0.6-0.2-1.2-0.2-1.8,0.2l-9.5,5.5c-3.7,2.1-4.9,6.9-2.6,10.6
			c2.2,3.5,6.8,4.4,10.3,2.3l9.3-5.4c0.6-0.3,1-0.9,1.1-1.5C1057.9,672,1057.5,669.5,1056.2,667.3z"/>
		<path class="st7" d="M1130.5,668.1l-34.6-9.2c-7.2-1.9-14.7,2.4-16.6,9.6l-9.2,34.6c3.7,1,7.7-0.8,9.4-4.2l9.2-18.7
			c2.3-4.9,7.4-7.8,12.8-7.3l20.5,1.4C1125.9,674.6,1129.4,672,1130.5,668.1z"/>
		<path class="st7" d="M1095.8,677.9c-2.2,1.3-3.8,3.3-4.6,5.5c-0.2,0.6-0.2,1.3,0.2,1.8l5.5,9.5c2.1,3.7,6.9,4.9,10.6,2.6
			c3.5-2.2,4.4-6.8,2.3-10.3l-5.4-9.3c-0.3-0.6-0.9-1-1.5-1.1C1100.6,676.2,1098.1,676.6,1095.8,677.9z"/>
	</g>
</g>
</svg>
