<?xml version="1.0" encoding="utf-8"?>
<!-- Generator: Adobe Illustrator 26.0.3, SVG Export Plug-In . SVG Version: 6.00 Build 0)  -->
<svg version="1.1" id="Layer_1" xmlns="http://www.w3.org/2000/svg" xmlns:xlink="http://www.w3.org/1999/xlink" x="0px" y="0px"
	 viewBox="0 0 258.7 163.1" style="enable-background:new 0 0 258.7 163.1;" xml:space="preserve">
<style type="text/css">
	.st0{fill:#71645C;}
	.st1{fill:#801E36;}
	.st2{fill:#E35A00;}
	.st3{fill:#C00020;}
	.st4{fill:#F7A120;}
	.st5{fill:#DB2422;}
	.st6{fill:none;}
</style>
<g>
	<path class="st0" d="M72.7,124.3c0,0.1,0,0.2-0.1,0.2H71c-0.1,0-0.3-0.1-0.3-0.2l-0.8-1.9h-2.8l-0.8,1.9c-0.1,0.1-0.2,0.2-0.3,0.2
		h-1.6c-0.1,0-0.2-0.1-0.1-0.2l4-8.8c0-0.1,0.1-0.1,0.2-0.1c0.1,0,0.2,0.1,0.2,0.1L72.7,124.3z M67.7,120.9h1.6l-0.8-2L67.7,120.9z"
		/>
	<path class="st0" d="M76,124.3c0,0.1-0.1,0.2-0.2,0.2h-1.3c-0.1,0-0.2-0.1-0.2-0.2v-6c0-0.1,0.1-0.2,0.2-0.2h0.7
		c0.1,0,0.2,0.1,0.3,0.2l0.1,0.3c0.5-0.4,1.1-0.6,1.6-0.6c2.4,0,2.8,1.7,2.8,3.2v3.1c0,0.1-0.1,0.2-0.2,0.2h-1.3
		c-0.1,0-0.2-0.1-0.2-0.2v-3.1c0-0.7-0.1-1.7-1.1-1.7c-0.5,0-1,0.3-1.2,0.6V124.3z"/>
	<path class="st0" d="M87.7,120.9v1.9h4.1c0.1,0,0.2,0.1,0.2,0.2v1.2c0,0.1-0.1,0.2-0.2,0.2h-5.7c-0.1,0-0.2-0.1-0.2-0.2v-8.6
		c0-0.1,0.1-0.2,0.2-0.2h5.7c0.1,0,0.2,0.1,0.2,0.2v1.2c0,0.1-0.1,0.2-0.2,0.2h-4.1v2.1h3.2c0.1,0,0.2,0.1,0.2,0.2v1.2
		c0,0.1-0.1,0.2-0.2,0.2H87.7z"/>
	<path class="st0" d="M93.6,121.2c0-1.4,0.7-3.3,3.1-3.3c0.5,0,1.3,0.2,1.7,0.6l0.1-0.2c0-0.1,0.2-0.2,0.3-0.2h0.8
		c0.1,0,0.2,0.1,0.2,0.2v8.6c0,0.1-0.1,0.2-0.2,0.2h-1.3c-0.1,0-0.2-0.1-0.2-0.2v-2.5c-0.3,0.1-0.6,0.2-1.4,0.2
		C94.2,124.5,93.6,122.6,93.6,121.2z M95.3,121.2c0,0.6,0.2,1.8,1.6,1.8c0.3,0,0.8-0.1,1.1-0.3V120c-0.2-0.2-0.6-0.5-1.2-0.5
		C95.5,119.5,95.3,120.7,95.3,121.2z"/>
	<path class="st0" d="M105.5,118.2c0-0.1,0.1-0.2,0.2-0.2h1.3c0.1,0,0.2,0.1,0.2,0.2v6c0,0.1-0.1,0.2-0.2,0.2h-0.7
		c-0.1,0-0.2-0.1-0.3-0.2l-0.1-0.3c-0.5,0.4-1.1,0.6-1.6,0.6c-2.4,0-2.8-1.7-2.8-3.2v-3.1c0-0.1,0.1-0.2,0.2-0.2h1.3
		c0.1,0,0.2,0.1,0.2,0.2v3.1c0,0.7,0.1,1.7,1.1,1.7c0.5,0,1-0.3,1.2-0.6V118.2z"/>
	<path class="st0" d="M110.3,114.9c0.6,0,1,0.4,1,1c0,0.6-0.4,1-1,1c-0.6,0-1-0.4-1-1C109.3,115.4,109.7,114.9,110.3,114.9z
		 M111.2,124.3c0,0.1-0.1,0.2-0.2,0.2h-1.3c-0.1,0-0.2-0.1-0.2-0.2v-6c0-0.1,0.1-0.2,0.2-0.2h1.3c0.1,0,0.2,0.1,0.2,0.2V124.3z"/>
	<path class="st0" d="M115.1,124.3c0,0.1-0.1,0.2-0.2,0.2h-1.3c-0.1,0-0.2-0.1-0.2-0.2v-6c0-0.1,0.1-0.2,0.2-0.2h0.7
		c0.1,0,0.2,0.1,0.3,0.2l0.1,0.3c0.5-0.4,1.1-0.6,1.6-0.6c2.4,0,2.8,1.7,2.8,3.2v3.1c0,0.1-0.1,0.2-0.2,0.2h-1.3
		c-0.1,0-0.2-0.1-0.2-0.2v-3.1c0-0.7-0.1-1.7-1.1-1.7c-0.5,0-1,0.3-1.2,0.6V124.3z"/>
	<path class="st0" d="M121.9,114.9c0.6,0,1,0.4,1,1c0,0.6-0.4,1-1,1c-0.6,0-1-0.4-1-1C120.9,115.4,121.3,114.9,121.9,114.9z
		 M122.7,124.3c0,0.1-0.1,0.2-0.2,0.2h-1.3c-0.1,0-0.2-0.1-0.2-0.2v-6c0-0.1,0.1-0.2,0.2-0.2h1.3c0.1,0,0.2,0.1,0.2,0.2V124.3z"/>
	<path class="st0" d="M124.2,119.6c-0.1,0-0.2-0.1-0.2-0.2v-1.1c0-0.1,0.1-0.2,0.2-0.2h0.5l0.1-1c0-0.1,0.1-0.2,0.2-0.2h1.2
		c0.1,0,0.2,0.1,0.2,0.2v1h1c0.1,0,0.2,0.1,0.2,0.2v1.1c0,0.1-0.1,0.2-0.2,0.2h-1v3c0,0.3,0.2,0.4,0.4,0.4c0.2,0,0.5-0.1,0.7-0.1
		c0.1,0,0.2,0.1,0.2,0.2l0.2,1c0,0.1,0,0.2-0.2,0.3c-0.8,0.2-1.3,0.2-1.6,0.2c-1.4,0-1.5-1.3-1.5-1.8v-3.2H124.2z"/>
	<path class="st0" d="M130.2,114.9c0.6,0,1,0.4,1,1c0,0.6-0.4,1-1,1c-0.6,0-1-0.4-1-1C129.2,115.4,129.6,114.9,130.2,114.9z
		 M131,124.3c0,0.1-0.1,0.2-0.2,0.2h-1.3c-0.1,0-0.2-0.1-0.2-0.2v-6c0-0.1,0.1-0.2,0.2-0.2h1.3c0.1,0,0.2,0.1,0.2,0.2V124.3z"/>
	<path class="st0" d="M143.8,118c-0.1,0.1-0.2,0.1-0.3,0c-0.5-0.5-1.4-1-2.2-1c-2.3,0-2.6,2.2-2.6,2.9c0,0.7,0.3,2.9,2.6,2.9
		c0.8,0,1.7-0.4,2.3-0.9c0.1-0.1,0.2-0.1,0.3,0l0.7,0.9c0.1,0.1,0.1,0.2,0,0.3c-0.9,0.8-1.9,1.4-3.3,1.4c-3.4,0-4.5-2.7-4.5-4.6
		c0-1.9,1-4.6,4.5-4.6c1.5,0,2.5,0.6,3.4,1.5c0.1,0.1,0.1,0.2,0,0.3L143.8,118z"/>
	<path class="st0" d="M152.7,121.3c0,1.4-0.7,3.3-3.2,3.3s-3.2-1.9-3.2-3.3c0-1.4,0.7-3.4,3.2-3.4S152.7,119.9,152.7,121.3z
		 M150.9,121.3c0-0.4-0.2-1.8-1.5-1.8c-1.3,0-1.5,1.4-1.5,1.8c0,0.4,0.2,1.8,1.5,1.8C150.7,123,150.9,121.7,150.9,121.3z"/>
	<path class="st0" d="M156.2,124.3c0,0.1-0.1,0.2-0.2,0.2h-1.3c-0.1,0-0.2-0.1-0.2-0.2v-6c0-0.1,0.1-0.2,0.2-0.2h0.7
		c0.1,0,0.2,0.1,0.3,0.2l0.1,0.3c0.5-0.4,1.1-0.6,1.6-0.6c0.9,0,1.5,0.2,1.9,0.6c0.5-0.4,1.2-0.6,1.8-0.6c2.5,0,2.6,1.7,2.6,3.2v3.1
		c0,0.1-0.1,0.2-0.2,0.2h-1.3c-0.1,0-0.2-0.1-0.2-0.2V121c0-0.7,0-1.5-0.8-1.5c-0.5,0-0.9,0.3-1.1,0.6v4.2c0,0.1-0.1,0.2-0.2,0.2
		h-1.3c-0.1,0-0.2-0.1-0.2-0.2V121c0-0.7,0-1.5-0.8-1.5c-0.5,0-1,0.3-1.2,0.6V124.3z"/>
	<path class="st0" d="M167.2,124.4v2.5c0,0.1-0.1,0.2-0.2,0.2h-1.3c-0.1,0-0.2-0.1-0.2-0.2v-8.6c0-0.1,0.1-0.2,0.2-0.2h0.8
		c0.1,0,0.2,0.1,0.3,0.2l0.1,0.2c0.4-0.3,1.2-0.6,1.7-0.6c2.4,0,3.1,2,3.1,3.3c0,1.4-0.6,3.2-3,3.3
		C168.1,124.6,167.7,124.6,167.2,124.4z M167.2,120v2.7c0.3,0.2,0.8,0.3,1.1,0.3c1.4,0,1.6-1.1,1.6-1.8c0-0.5-0.2-1.8-1.5-1.8
		C167.9,119.5,167.4,119.7,167.2,120z"/>
	<path class="st0" d="M176,117.9c2.2,0,2.4,1.4,2.4,2.7v3.6c0,0.1-0.1,0.2-0.2,0.2h-0.8c-0.1,0-0.2-0.1-0.3-0.2l-0.1-0.2
		c-0.4,0.3-1,0.5-1.5,0.5c-2,0.1-2.4-1.3-2.4-2c0-1.8,1.4-2.1,2.8-2.1c0.3,0,0.5,0,0.7,0.1c0-0.9-0.3-1.1-0.9-1.1
		c-0.3,0-0.9,0.1-1.5,0.4c-0.1,0-0.2,0-0.3-0.1l-0.4-0.9c-0.1-0.1,0-0.2,0.1-0.3C174.4,118.2,175.2,117.9,176,117.9z M176.7,121.9
		c-0.2-0.1-0.5-0.1-0.8-0.1c-0.5,0-1,0.1-1,0.7c0,0.4,0.4,0.6,0.8,0.6c0.5,0,0.9-0.3,1.1-0.5V121.9z"/>
	<path class="st0" d="M182.2,124.3c0,0.1-0.1,0.2-0.2,0.2h-1.3c-0.1,0-0.2-0.1-0.2-0.2v-6c0-0.1,0.1-0.2,0.2-0.2h0.7
		c0.1,0,0.2,0.1,0.3,0.2l0.1,0.3c0.5-0.4,1.1-0.6,1.6-0.6c2.5,0,2.8,1.7,2.8,3.2v3.1c0,0.1-0.1,0.2-0.2,0.2h-1.3
		c-0.1,0-0.2-0.1-0.2-0.2v-3.1c0-0.7-0.1-1.7-1.1-1.7c-0.5,0-1,0.3-1.2,0.6V124.3z"/>
	<path class="st0" d="M190,124l-2.6-5.7c0-0.1,0-0.2,0.1-0.2h1.6c0.1,0,0.3,0.1,0.3,0.2l1.5,3.7l1.5-3.7c0-0.1,0.2-0.2,0.3-0.2h1.5
		c0.1,0,0.2,0.1,0.1,0.2l-3.6,8.6c-0.1,0.1-0.2,0.2-0.3,0.2H189c-0.1,0-0.2-0.1-0.1-0.2L190,124z"/>
</g>
<g>
	<path class="st1" d="M153.8,87.7c0.2,0.4-0.1,0.8-0.5,0.8H147c-0.5,0-1-0.3-1.2-0.8l-3.1-7.5h-11l-3.1,7.5
		c-0.2,0.5-0.7,0.8-1.2,0.8h-6.3c-0.4,0-0.7-0.4-0.5-0.8l15.7-34.9c0.2-0.3,0.5-0.6,0.9-0.6c0.4,0,0.8,0.3,0.9,0.6L153.8,87.7z
		 M134,74.4h6.4l-3.2-8L134,74.4z"/>
	<path class="st1" d="M175.7,66.9c5.6,1.9,12.7,4.1,12.2,11.8c-0.4,5.8-5.6,10.3-13,10.3c-5.1,0-9-1.1-13.1-3.2
		c-0.4-0.2-0.6-0.8-0.4-1.2l2.3-4.4c0.2-0.4,0.8-0.6,1.2-0.4c3.2,1.5,6.3,2.6,9.5,2.6c3.1,0,5.4-1.3,5.7-3.4c0.4-2.6-2.2-3.9-5.7-5
		c-5.4-1.7-12.7-3.4-12.7-11.2c0-6.5,4.8-10.4,11.6-10.4c1.9,0,6.6,0.4,12.2,2.9c0.4,0.2,0.6,0.7,0.4,1.2l-1.9,4.4
		c-0.2,0.5-0.7,0.7-1.2,0.5c-2.1-0.9-6-2.3-9.1-2.3c-2.5,0-4.7,0.8-4.8,3.3C169.2,64.7,172.2,65.7,175.7,66.9"/>
	<path class="st1" d="M205.5,59.3h-8.8c-0.5,0-0.9-0.4-0.9-0.9v-4.9c0-0.5,0.4-0.9,0.9-0.9h25c0.5,0,0.9,0.4,0.9,0.9v4.9
		c0,0.5-0.4,0.9-0.9,0.9h-8.9v28.2c0,0.5-0.4,0.9-0.9,0.9h-5.6c-0.5,0-0.9-0.4-0.9-0.9V59.3z"/>
	<path class="st2" d="M60.9,53.8c-3-5.5-2-12,2.1-15.4c-1.8,1.2-3.3,2.9-4.4,5L50,59.3l13.8,0L60.9,53.8z"/>
	<path class="st2" d="M39.9,78.1l-0.9,1.6c-3.3,6.2-1.7,13.7,3.7,16.5c5.4,2.9,12.5,0.1,15.8-6.1l4.7-8.8l-14.2,0
		C45.5,81.4,42.3,80.2,39.9,78.1"/>
	<path class="st2" d="M78,53.8L75,59.3l13.8,0l-8.5-15.9c-1.1-2.1-2.7-3.8-4.4-5C79.9,41.8,80.9,48.3,78,53.8"/>
	<path class="st2" d="M99,78.3c-2.3,1.9-5.4,3-8.8,3l-14.6,0l4.7,8.8c3.3,6.2,10.4,9,15.8,6.1c5.3-2.9,7-10.3,3.7-16.5L99,78.3z"/>
	<path class="st3" d="M60.9,53.8l2.9,5.5l11.2,0l2.9-5.5c3-5.5,2-12-2.1-15.4c-2-1.4-4.2-2.2-6.5-2.2c-2.2,0.1-4.5,0.8-6.5,2.2
		C58.9,41.8,57.9,48.3,60.9,53.8"/>
	<path class="st4" d="M49,59.3c-7.1,0-12.8,5-12.8,11c0,3,1.4,5.8,3.7,7.8L50,59.3L49,59.3z"/>
	<path class="st4" d="M103.1,70.3c0-6.1-5.8-11-12.9-11l-1.4,0l10.2,19C101.5,76.3,103.1,73.5,103.1,70.3"/>
	<polygon class="st4" points="63.2,81.4 75.6,81.4 69.4,69.8 	"/>
	<path class="st5" d="M63.8,59.3l-13.8,0L39.9,78.1c2.3,2,5.6,3.3,9.1,3.3l14.2,0l6.2-11.6L63.8,59.3z"/>
	<path class="st5" d="M99,78.3l-10.2-19l-13.8,0l-5.6,10.5l6.2,11.6l14.6,0C93.6,81.4,96.7,80.2,99,78.3"/>
	<polygon class="st1" points="69.4,69.8 75,59.3 63.8,59.3 	"/>
	<rect x="35.7" y="36.2" class="st6" width="186.8" height="63"/>
	<g>
		<path class="st1" d="M230,51.9c0,1.4-1.1,2.4-2.4,2.4c-1.4,0-2.5-1.1-2.5-2.4c0-1.3,1.1-2.4,2.5-2.4C228.9,49.5,230,50.6,230,51.9
			z M225.7,51.9c0,1.1,0.8,1.9,1.9,1.9c1,0,1.8-0.8,1.8-1.9c0-1.1-0.8-1.9-1.8-1.9C226.5,50,225.7,50.8,225.7,51.9z M227.2,53.1
			h-0.6v-2.4c0.2,0,0.5-0.1,0.9-0.1c0.5,0,0.7,0.1,0.8,0.2c0.1,0.1,0.2,0.3,0.2,0.5c0,0.3-0.2,0.5-0.5,0.6v0
			c0.2,0.1,0.4,0.3,0.4,0.6c0.1,0.4,0.1,0.5,0.2,0.6h-0.6c-0.1-0.1-0.1-0.3-0.2-0.6c0-0.3-0.2-0.4-0.5-0.4h-0.3V53.1z M227.2,51.8
			h0.3c0.3,0,0.6-0.1,0.6-0.3c0-0.2-0.2-0.4-0.5-0.4c-0.1,0-0.2,0-0.3,0V51.8z"/>
	</g>
</g>
</svg>
