<svg width="175" height="31" viewBox="0 0 175 31" fill="none" xmlns="http://www.w3.org/2000/svg">
<path fill-rule="evenodd" clip-rule="evenodd" d="M171.422 4.98467H171.964C172.121 4.98467 172.252 4.94684 172.359 4.8721C172.467 4.79612 172.519 4.69224 172.519 4.55858C172.519 4.40073 172.473 4.28816 172.382 4.21932C172.29 4.15078 172.13 4.11667 171.901 4.11667H171.422V4.98467ZM171.422 5.23808V6.22889H171.129V3.86336H171.901C172.195 3.86336 172.419 3.92197 172.577 4.03826C172.733 4.15455 172.812 4.32728 172.812 4.55367C172.812 4.67988 172.776 4.78873 172.703 4.87928C172.631 4.97139 172.527 5.04612 172.392 5.10101C172.527 5.14753 172.625 5.22103 172.684 5.31902C172.744 5.41702 172.774 5.53579 172.774 5.67534V5.83071C172.774 5.90544 172.778 5.97274 172.786 6.03414C172.794 6.09523 172.806 6.14547 172.824 6.1833V6.22889H172.519C172.5 6.18951 172.488 6.13213 172.484 6.0574C172.48 5.98266 172.478 5.90544 172.478 5.82822V5.67782C172.478 5.52121 172.44 5.40957 172.364 5.34104C172.288 5.27251 172.162 5.23808 171.984 5.23808H171.422ZM170.039 5.07703C170.039 5.59492 170.22 6.03217 170.585 6.38849C170.95 6.74481 171.391 6.92344 171.906 6.92344C172.421 6.92344 172.86 6.74481 173.224 6.38849C173.59 6.03217 173.772 5.59492 173.772 5.07703C173.772 4.5641 173.59 4.12933 173.224 3.77425C172.86 3.41917 172.421 3.24179 171.906 3.24179C171.391 3.24179 170.95 3.41917 170.585 3.77425C170.22 4.12933 170.039 4.5641 170.039 5.07703ZM169.784 5.07899C169.784 4.49505 169.992 4.00166 170.403 3.60131C170.816 3.20095 171.317 3 171.906 3C172.494 3 172.995 3.20095 173.408 3.60131C173.822 4.00166 174.029 4.49505 174.029 5.07899C174.029 5.66542 173.822 6.16004 173.408 6.56288C172.995 6.96572 172.494 7.16667 171.906 7.16667C171.317 7.16667 170.816 6.96572 170.403 6.56288C169.992 6.16004 169.784 5.66542 169.784 5.07899Z" fill="white"/>
<path fill-rule="evenodd" clip-rule="evenodd" d="M51.3353 8.0125H51.4817L53.0945 18.8141H45.1759L51.3353 8.0125ZM33.957 28.4076H39.639L42.9026 22.7221H53.7919L54.6708 28.4076H59.8035L55.1469 3.60744H49.4662L33.957 28.4076ZM81.1762 10.1094H76.2634L74.2475 19.3108C73.6237 22.0466 72.3784 25.1382 68.9687 25.1382C67.3924 25.1382 66.2925 24.1088 66.2925 22.5802C66.2925 21.2302 66.5854 19.9867 66.8431 18.7432L68.6742 10.1094H63.7628L61.7823 18.9914C61.5259 20.1286 61.1598 21.5849 61.1598 22.9707C61.1598 26.5961 63.615 28.8333 67.3192 28.8333C69.4448 28.8333 71.3152 27.8396 72.6716 26.6302H72.7448L72.4151 28.4076H77.2169C77.2901 27.8396 77.4746 26.88 77.6943 25.7784L81.1762 10.1094ZM81.9832 13.5913H85.5396L84.1466 19.7735C83.8169 21.2301 83.5227 22.6156 83.5227 24.0366C83.5227 27.5542 85.8693 28.8333 89.2061 28.8333C90.0485 28.8333 91.002 28.5848 91.8455 28.4076L92.688 24.7124C92.0655 24.9609 91.1865 25.1382 90.306 25.1382C89.2061 25.1382 88.4358 24.4639 88.4358 23.3624C88.4358 22.6512 88.5455 22.011 88.6555 21.5849L90.4527 13.5913H94.8513L95.6219 10.1094H91.2216L92.4315 4.67242L87.1524 6.34293L86.3089 10.1094H82.7538L81.9832 13.5913ZM103.063 25.1382C100.242 25.1382 99.215 23.2557 99.215 20.8397C99.215 17.535 101.157 13.3784 105.043 13.3784C107.939 13.3784 108.783 15.3671 108.783 17.7478C108.783 20.875 106.876 25.1382 103.063 25.1382ZM105.263 9.68328C98.9206 9.68328 94.0811 14.3734 94.0811 20.4833C94.0811 25.6352 97.3078 28.8333 102.66 28.8333C109.332 28.8333 113.916 24.1432 113.916 17.7125C113.916 12.6673 110.359 9.68328 105.263 9.68328ZM112.632 27.8396C114.428 28.5495 116.114 28.8333 118.058 28.8333C121.686 28.8333 125.574 27.2704 125.574 23.1495C125.574 18.3527 118.095 17.961 118.095 14.8705C118.095 12.3478 120.66 11.7786 122.493 11.7786C123.886 11.7786 125.426 12.1703 126.636 12.8448L127.406 10.7492C125.867 10.146 124.291 9.86086 122.603 9.86086C119.598 9.86086 115.675 11.3172 115.675 14.9058C115.675 19.5253 123.044 19.3477 123.044 23.2914C123.044 26.0978 120 26.9156 117.764 26.9156C116.188 26.9156 114.648 26.3829 113.328 25.6008L112.632 27.8396ZM127.26 20.946C127.26 25.4576 130.119 28.8333 134.739 28.8333C141.192 28.8333 145.114 23.6818 145.114 17.6413C145.114 12.9524 142.437 9.86086 137.672 9.86086C131.329 9.86086 127.26 14.8705 127.26 20.946ZM129.789 21.2998C129.789 16.6819 132.208 11.7786 137.377 11.7786C141.008 11.7786 142.583 14.2659 142.583 17.6769C142.583 21.94 139.872 26.9156 135.032 26.9156C131.769 26.9156 129.789 24.4283 129.789 21.2998ZM146.39 28.4076H148.809L152.402 12.2059H157.021L157.497 10.2866H152.842L153.135 8.93649C153.759 6.05909 154.418 3.25265 157.167 3.25265C158.268 3.25265 158.855 3.53647 159.038 3.60743L159.587 1.72373C158.745 1.40427 157.901 1.33331 157.021 1.33331C152.659 1.33331 151.522 5.34793 150.825 8.47512L150.422 10.2866H146.426L145.95 12.2059H149.983L146.39 28.4076ZM162.525 10.2866H158.86L158.346 12.2059H162.087L160.29 20.2352C160.107 21.0173 159.446 23.896 159.446 25.4576C159.446 27.4123 160.914 28.8333 163.515 28.8333C164.469 28.8333 165.166 28.6558 165.862 28.3363L166.082 26.4186C165.422 26.7734 164.798 26.9156 164.102 26.9156C162.746 26.9156 161.976 26.1335 161.976 24.7124C161.976 23.5396 162.269 22.367 162.525 21.1592L164.505 12.2059H169.308L169.784 10.2866H164.909L166.045 5.34793L163.405 6.23664L162.525 10.2866Z" fill="white"/>
<mask id="mask0_53906_3614" style="mask-type:alpha" maskUnits="userSpaceOnUse" x="8" y="17" width="15" height="14">
<path fill-rule="evenodd" clip-rule="evenodd" d="M8.48926 17.1667H22.072V30.5H8.48926V17.1667Z" fill="white"/>
</mask>
<g mask="url(#mask0_53906_3614)">
<path fill-rule="evenodd" clip-rule="evenodd" d="M17.2364 17.1667L8.48926 30.229C10.6861 30.395 13.2499 30.5148 15.992 30.4986C18.2766 30.4847 20.317 30.3836 22.072 30.2451L17.2364 17.1667Z" fill="white"/>
</g>
<path fill-rule="evenodd" clip-rule="evenodd" d="M30.2662 25.5C30.9233 23.3324 31.6974 20.1879 32.2698 16.052C33.4772 7.31043 33.0244 1.59924 33.0244 1.59924C33.0244 1.59924 27.9674 0.695132 21.2227 0.5L30.2662 25.5Z" fill="white"/>
<mask id="mask1_53906_3614" style="mask-type:alpha" maskUnits="userSpaceOnUse" x="0" y="0" width="17" height="27">
<path fill-rule="evenodd" clip-rule="evenodd" d="M0 0.5H16.9784V26.3333H0V0.5Z" fill="white"/>
</mask>
<g mask="url(#mask1_53906_3614)">
<path fill-rule="evenodd" clip-rule="evenodd" d="M16.9786 0.5C9.11996 0.641934 4.29758 1.76801 4.29758 1.76801C4.29758 1.76801 2.11248 6.22568 0.861699 15.2437C0.21551 19.9027 0.0296667 23.7248 0 26.3333L16.9786 0.5Z" fill="white"/>
</g>
</svg>
